<?xml version="1.0" encoding="utf-8"?>
<!-- Generator: Adobe Illustrator 16.0.0, SVG Export Plug-In . SVG Version: 6.00 Build 0)  -->
<!DOCTYPE svg PUBLIC "-//W3C//DTD SVG 1.1//EN" "http://www.w3.org/Graphics/SVG/1.1/DTD/svg11.dtd">
<svg version="1.1" xmlns="http://www.w3.org/2000/svg" xmlns:xlink="http://www.w3.org/1999/xlink" x="0px" y="0px" width="100px"
	 height="100px" viewBox="0 0 100 100" enable-background="new 0 0 100 100" xml:space="preserve">
<g id="Layer_1">
</g>
<g id="Layer_2">
	<rect x="120" y="-62.444" fill-rule="evenodd" clip-rule="evenodd" fill="#1A1A1A" width="112" height="116.75"/>
	<path fill-rule="evenodd" clip-rule="evenodd" fill="#FFFFFF" d="M49.431,28.813c11.761-0.372,21.384,8.537,22.13,20
		c0.768,11.791-8.151,21.969-19.898,22.756c-11.566,0.777-21.866-8.112-22.799-19.268C27.842,40.092,36.957,29.314,49.431,28.813z
		 M34.381,49.626c-0.542,8.212,6.321,15.834,14.75,16.379c8.667,0.558,16.271-6.052,16.862-14.662
		c0.611-8.886-6.035-16.326-15.144-16.948C42.384,33.818,34.972,40.673,34.381,49.626z"/>
	<path fill-rule="evenodd" clip-rule="evenodd" fill="#FFFFFF" d="M78.173,38.147c-1.529,0.004-2.725-0.782-3.252-2.136
		c-0.533-1.37-0.179-3.068,1.054-4.031c2.591-2.024,5.213-4.012,7.901-5.904c1.597-1.125,3.806-0.685,4.854,0.763
		c1.111,1.529,0.821,3.711-0.784,4.966c-2.444,1.909-4.945,3.747-7.439,5.592C79.827,37.9,79.052,38.207,78.173,38.147z"/>
	<path fill-rule="evenodd" clip-rule="evenodd" fill="#FFFFFF" d="M14.869,75.524c-1.499,0.014-2.73-0.796-3.271-2.153
		c-0.588-1.473-0.179-3.098,1.259-4.219c2.489-1.94,5.046-3.797,7.581-5.68c0.221-0.165,0.474-0.301,0.731-0.397
		c1.627-0.616,3.476-0.07,4.337,1.27c0.887,1.382,0.767,3.335-0.556,4.465c-2.647,2.261-5.484,4.287-8.353,6.262
		C16.102,75.412,15.488,75.537,14.869,75.524z"/>
	<path fill-rule="evenodd" clip-rule="evenodd" fill="#FFFFFF" d="M83.29,53.986c-0.834,0.044-1.662,0.128-2.481-0.167
		c-1.602-0.577-2.606-2.034-2.457-3.638c0.142-1.523,1.352-2.956,2.944-3.09c3.422-0.284,6.854-0.497,10.286-0.569
		c1.916-0.041,3.399,1.581,3.418,3.361c0.02,1.925-1.459,3.484-3.508,3.621C88.76,53.688,86.023,53.828,83.29,53.986z"/>
	<path fill-rule="evenodd" clip-rule="evenodd" fill="#FFFFFF" d="M78.22,62.374c0.805-0.056,1.571,0.229,2.27,0.736
		c2.365,1.725,4.741,3.43,7.09,5.176c1.889,1.406,2.385,3.626,1.223,5.234c-1.224,1.696-3.445,1.896-5.438,0.461
		c-2.375-1.709-4.752-3.416-7.091-5.172c-1.424-1.068-1.943-2.711-1.448-4.186C75.302,63.206,76.538,62.369,78.22,62.374z"/>
	<path fill-rule="evenodd" clip-rule="evenodd" fill="#FFFFFF" d="M28.477,89.789c-2.663,0.021-4.392-2.773-2.945-5.155
		c1.78-2.929,3.822-5.71,5.896-8.446c1.117-1.472,3.241-1.621,4.661-0.623c1.431,1.008,2.02,3.006,1.008,4.587
		c-1.851,2.892-3.875,5.672-5.904,8.444C30.57,89.446,29.56,89.794,28.477,89.789z"/>
	<path fill-rule="evenodd" clip-rule="evenodd" fill="#FFFFFF" d="M13.292,54.072c-1.616-0.101-3.235-0.174-4.849-0.308
		c-2.012-0.167-3.515-1.801-3.441-3.681c0.07-1.808,1.652-3.359,3.633-3.305c3.237,0.086,6.475,0.262,9.703,0.526
		c2.112,0.172,3.434,1.761,3.334,3.712c-0.094,1.836-1.752,3.319-3.805,3.289c-1.526-0.022-3.049-0.178-4.573-0.272
		C13.294,54.046,13.293,54.06,13.292,54.072z"/>
	<path fill-rule="evenodd" clip-rule="evenodd" fill="#FFFFFF" d="M25.296,14.268c0.022-1.636,0.901-2.94,2.194-3.399
		c1.327-0.471,3.097-0.135,3.917,1.076c1.95,2.878,3.837,5.81,5.571,8.823c0.954,1.656,0.191,3.742-1.355,4.603
		c-1.574,0.876-3.626,0.455-4.688-1.14c-1.774-2.664-3.445-5.399-5.146-8.112C25.413,15.517,25.226,14.846,25.296,14.268z"/>
	<path fill-rule="evenodd" clip-rule="evenodd" fill="#FFFFFF" d="M53.752,13.448c0,1.44,0.012,2.881-0.003,4.322
		c-0.023,2.251-1.492,3.896-3.48,3.92c-1.998,0.024-3.503-1.604-3.531-3.846c-0.039-3.064-0.122-6.13-0.075-9.193
		c0.031-2.032,1.521-3.559,3.326-3.645c1.722-0.082,3.299,1.212,3.653,3.014c0.053,0.27,0.048,0.552,0.057,0.831
		c0.021,0.789,0.042,1.578,0.051,2.367C53.758,11.961,53.752,12.705,53.752,13.448z"/>
	<path fill-rule="evenodd" clip-rule="evenodd" fill="#FFFFFF" d="M53.7,86.688c0,1.485,0.021,2.973-0.005,4.458
		c-0.037,2.137-1.515,3.777-3.432,3.851c-1.893,0.074-3.564-1.515-3.598-3.663c-0.053-3.248-0.003-6.502,0.103-9.749
		c0.06-1.849,1.702-3.283,3.517-3.272c1.837,0.012,3.387,1.536,3.454,3.498c0.056,1.624,0.012,3.252,0.012,4.878
		C53.733,86.688,53.717,86.688,53.7,86.688z"/>
	<path fill-rule="evenodd" clip-rule="evenodd" fill="#FFFFFF" d="M65.862,74.637c1.324-0.016,2.328,0.596,3.082,1.621
		c1.789,2.431,3.58,4.863,5.317,7.33c1.229,1.745,0.93,3.964-0.604,5.122c-1.547,1.171-3.748,0.833-5.05-0.888
		c-1.875-2.484-3.698-5.005-5.485-7.552c-0.861-1.226-0.996-2.586-0.243-3.944C63.523,75.16,64.553,74.642,65.862,74.637z"/>
	<path fill-rule="evenodd" clip-rule="evenodd" fill="#FFFFFF" d="M25.326,35.107c-0.028,2.572-2.815,4.289-5.119,2.908
		c-3.022-1.81-5.803-4.017-8.482-6.306c-1.397-1.194-1.417-3.318-0.344-4.697c1.037-1.331,3.163-1.783,4.658-0.735
		c2.774,1.943,5.462,4.013,8.135,6.096C25.01,33.024,25.335,34.029,25.326,35.107z"/>
	<path fill-rule="evenodd" clip-rule="evenodd" fill="#FFFFFF" d="M74.713,13.952c0.073,0.72-0.182,1.455-0.613,2.139
		c-1.582,2.514-3.141,5.044-4.761,7.532c-1.225,1.882-3.429,2.462-5.065,1.42c-1.677-1.067-2.103-3.254-0.928-5.171
		c1.576-2.573,3.187-5.125,4.829-7.655c0.986-1.518,2.682-2.139,4.226-1.661C73.79,10.987,74.696,12.276,74.713,13.952z"/>
</g>
</svg>
