<?xml version="1.0" encoding="utf-8"?>
<!-- Generator: Adobe Illustrator 16.0.0, SVG Export Plug-In . SVG Version: 6.00 Build 0)  -->
<!DOCTYPE svg PUBLIC "-//W3C//DTD SVG 1.1//EN" "http://www.w3.org/Graphics/SVG/1.1/DTD/svg11.dtd">
<svg version="1.1" xmlns="http://www.w3.org/2000/svg" xmlns:xlink="http://www.w3.org/1999/xlink" x="0px" y="0px" width="100px"
	 height="100px" viewBox="0 0 100 100" enable-background="new 0 0 100 100" xml:space="preserve">
<g id="Layer_1">
</g>
<g id="Layer_2">
	<rect x="120.5" y="-12.529" fill-rule="evenodd" clip-rule="evenodd" fill="#1A1A1A" width="112" height="116.75"/>
	<g>
		<path fill-rule="evenodd" clip-rule="evenodd" fill="#FFFFFF" d="M24.085,32.185c4.951-0.311,9.169,1.016,12.776,4.15
			c1.359,1.182,2.521,2.533,3.301,4.169c0.565,1.188,0.12,2.564-0.963,3.171c-1.113,0.623-2.545,0.34-3.224-0.761
			c-2.916-4.727-7.221-6.417-12.568-5.762c-6.223,0.763-10.425,3.782-12.16,10.055C9.608,53.128,11.97,59.661,16.8,62.942
			c1.926,1.309,4.092,1.92,6.371,2.209c0.361,0.047,0.729,0.063,1.085,0.139c1.402,0.302,2.159,1.355,1.988,2.743
			c-0.15,1.221-1.114,2.086-2.46,2.016c-6.075-0.317-11.032-2.771-14.51-7.864C3.75,54.092,5.06,42.951,12.239,36.605
			c1.573-1.391,3.372-2.401,5.363-3.024c0.748-0.234,1.062-0.624,1.313-1.35c2.729-7.885,6.999-14.619,14.469-18.859
			c11.675-6.627,27.624-4.031,36.582,5.921c1.31,1.454,2.29,3.146,3.37,4.765c0.349,0.521,0.721,0.924,1.452,0.908
			c8.745-0.181,17.45,7.301,20.177,16.345c3.689,12.239-4.445,25.763-17.111,29.164c-1.602,0.431-2.895-0.271-3.271-1.685
			c-0.377-1.416,0.46-2.561,2.16-3.096c7.688-2.42,12.537-7.604,13.973-15.482c1.412-7.746-2.989-15.459-10.186-19.017
			c-3.749-1.854-7.449-1.647-11.112,0.132c-1.856,0.902-3.258,2.203-3.412,4.504c-0.088,1.293-1.362,2.155-2.605,2.014
			c-1.329-0.15-2.223-1.206-2.18-2.621c0.089-2.895,1.538-5.064,3.709-6.824c0.884-0.717,1.847-1.345,2.917-1.732
			c0.865-0.313,0.986-0.605,0.459-1.428c-3.538-5.519-8.688-8.67-14.952-10.008c-12.313-2.63-22.815,2.865-28.276,14.638
			C24.756,30.562,24.474,31.273,24.085,32.185z"/>
		<path fill-rule="evenodd" clip-rule="evenodd" fill="#FFFFFF" d="M52.695,73.838c3.67-6.354,7.245-12.545,10.821-18.735
			c0.063,0.021,0.125,0.041,0.188,0.063c-0.35,3.106-0.699,6.214-1.052,9.32c-0.174,1.53-0.333,3.063-0.544,4.587
			c-0.075,0.542,0.086,0.692,0.612,0.735c1.532,0.124,3.059,0.307,4.781,0.486c-2.766,5.67-5.479,11.235-8.193,16.8
			c-0.069-0.014-0.139-0.026-0.208-0.04c0.207-2.715,0.41-5.43,0.621-8.144c0.097-1.253,0.175-2.508,0.323-3.755
			c0.074-0.617-0.166-0.758-0.717-0.795C57.187,74.212,55.048,74.026,52.695,73.838z"/>
		<path fill-rule="evenodd" clip-rule="evenodd" fill="#FFFFFF" d="M36.959,87.976c0.302-3.798,0.568-7.6,0.927-11.393
			c0.097-1.033-0.103-1.429-1.224-1.455c-1.979-0.045-3.952-0.271-6.088-0.435c3.648-6.322,7.209-12.489,10.769-18.658
			c0.072,0.011,0.145,0.022,0.217,0.033c-0.19,1.761-0.378,3.521-0.571,5.28c-0.308,2.782-0.583,5.568-0.952,8.342
			c-0.109,0.826,0.232,0.981,0.896,1.029c1.213,0.089,2.424,0.22,3.638,0.307c0.608,0.044,0.779,0.21,0.476,0.827
			C42.402,77.229,39.787,82.616,37.163,88C37.095,87.991,37.026,87.983,36.959,87.976z"/>
	</g>
</g>
</svg>
