<?xml version="1.0" encoding="utf-8"?>
<!-- Generator: Adobe Illustrator 16.0.0, SVG Export Plug-In . SVG Version: 6.00 Build 0)  -->
<!DOCTYPE svg PUBLIC "-//W3C//DTD SVG 1.1//EN" "http://www.w3.org/Graphics/SVG/1.1/DTD/svg11.dtd">
<svg version="1.1" xmlns="http://www.w3.org/2000/svg" xmlns:xlink="http://www.w3.org/1999/xlink" x="0px" y="0px" width="100px"
	 height="100px" viewBox="0 0 100 100" enable-background="new 0 0 100 100" xml:space="preserve">
<g id="Layer_1">
</g>
<g id="Layer_2">
	<rect x="120.5" y="-12.529" fill-rule="evenodd" clip-rule="evenodd" fill="#1A1A1A" width="112" height="116.75"/>
	<g>
		<path fill-rule="evenodd" clip-rule="evenodd" fill="#FFFFFF" d="M65.723,96c-0.129-0.073-0.25-0.181-0.389-0.216
			c-3.49-0.9-5.188-3.922-4.076-7.378c0.889-2.767,2.811-4.883,4.615-7.064c0.289-0.351,0.625-0.399,0.922-0.052
			c1.996,2.336,4.145,4.608,4.998,7.656c0.824,2.945-0.85,5.694-3.883,6.736c-0.244,0.084-0.598-0.039-0.725,0.317
			C66.699,96,66.211,96,65.723,96z"/>
		<path fill-rule="evenodd" clip-rule="evenodd" fill="#FFFFFF" d="M49.15,96c-0.135-0.072-0.261-0.177-0.404-0.214
			c-3.528-0.93-5.203-3.914-4.085-7.382c0.894-2.773,2.812-4.895,4.635-7.068c0.289-0.345,0.598-0.377,0.912-0.017
			c2.008,2.291,4.07,4.576,4.98,7.554c0.879,2.878-0.887,5.847-3.82,6.792c-0.334,0.107-0.75-0.013-1.002,0.335
			C49.961,96,49.557,96,49.15,96z"/>
		<path fill-rule="evenodd" clip-rule="evenodd" fill="#FFFFFF" d="M32.576,96c-0.046-0.061-0.079-0.158-0.138-0.177
			c-4.182-1.336-5.623-4.562-3.786-8.554c1.012-2.199,2.58-4.018,4.117-5.855c0.445-0.532,0.817-0.386,1.193,0.062
			c1.544,1.833,3.087,3.677,4.182,5.821c1.938,3.794,0.305,7.354-3.837,8.499c-0.102,0.027-0.18,0.135-0.27,0.204
			C33.55,96,33.063,96,32.576,96z"/>
		<path fill-rule="evenodd" clip-rule="evenodd" fill="#FFFFFF" d="M23.212,26.787c3.401-0.242,6.454,0.22,9.301,1.725
			c2.711,1.433,4.967,3.36,6.536,6.026c0.83,1.412,0.567,2.902-0.611,3.643c-1.241,0.779-2.674,0.302-3.605-1.138
			c-2.946-4.552-7.285-5.958-12.431-5.329c-5.715,0.698-9.947,3.502-11.735,9.147c-1.814,5.73-0.621,10.917,3.604,15.273
			c2.09,2.156,4.784,3.131,7.706,3.541c0.482,0.067,0.972,0.094,1.448,0.189c1.311,0.265,2.158,1.4,1.997,2.634
			c-0.17,1.294-1.203,2.258-2.516,2.164c-6.38-0.455-11.542-3.089-14.967-8.642c-4.632-7.51-3.746-17.072,2.139-23.603
			c1.862-2.065,4.151-3.493,6.789-4.337c0.659-0.211,0.916-0.548,1.146-1.203c3.697-10.544,9.87-18.884,21.294-21.597
			c11.857-2.815,22.261,0.1,30.501,9.424c1.039,1.177,1.818,2.586,2.688,3.907c0.389,0.591,0.854,0.909,1.59,0.904
			C83.6,19.454,93.107,28.08,94.73,38.612c1.795,11.65-6.195,23.549-17.621,26.408c-1.635,0.409-2.959-0.217-3.342-1.58
			c-0.41-1.457,0.369-2.644,2.061-3.139c8.908-2.605,14.848-10.798,14.268-19.687c-0.441-6.78-6.049-13.922-12.594-15.712
			c-3.979-1.088-7.727-0.342-10.936,2.408c-0.83,0.712-1.271,1.632-1.346,2.762c-0.1,1.488-1.176,2.399-2.59,2.313
			c-1.314-0.082-2.287-1.117-2.26-2.535c0.053-2.79,1.402-4.941,3.469-6.696c0.996-0.845,2.09-1.567,3.318-2.001
			c0.889-0.314,0.74-0.641,0.334-1.288c-3.436-5.485-8.51-8.667-14.676-10.017C44.573,8.044,36.985,9.524,30.6,15.356
			C27.22,18.443,24.994,22.334,23.212,26.787z"/>
		<path fill-rule="evenodd" clip-rule="evenodd" fill="#FFFFFF" d="M40.58,43.818c0.129,2.08-0.363,4.107-0.545,6.161
			c-0.218,2.463-0.534,4.919-0.862,7.371c-0.111,0.834,0.104,1.126,0.977,1.162c1.412,0.059,2.817,0.272,4.383,0.438
			c-2.768,5.672-5.486,11.242-8.204,16.813c-0.067-0.018-0.134-0.036-0.201-0.054c0.291-3.839,0.551-7.681,0.896-11.514
			c0.082-0.91-0.158-1.196-1.052-1.232c-1.822-0.076-3.64-0.267-5.461-0.381c-0.549-0.034-0.762-0.149-0.435-0.709
			c3.513-6.014,7.017-12.031,10.523-18.048L40.58,43.818z"/>
		<path fill-rule="evenodd" clip-rule="evenodd" fill="#FFFFFF" d="M60.156,75.79c-0.096-3.088,0.42-6.138,0.564-9.21
			c0.041-0.891,0.074-1.786,0.197-2.667c0.09-0.638-0.092-0.857-0.73-0.896c-1.902-0.117-3.799-0.295-5.699-0.429
			c-0.523-0.036-0.906-0.048-0.504-0.74c3.465-5.977,6.916-11.964,10.607-17.891c-0.221,2.065-0.432,4.132-0.664,6.196
			c-0.273,2.416-0.551,4.832-0.859,7.243c-0.096,0.742,0.041,1.075,0.902,1.109c1.449,0.057,2.893,0.278,4.498,0.448
			c-2.818,5.695-5.576,11.266-8.332,16.836H60.156z"/>
		<polygon fill-rule="evenodd" clip-rule="evenodd" fill="#FFFFFF" points="40.598,43.826 40.631,43.815 40.581,43.818 		"/>
		<polygon fill-rule="evenodd" clip-rule="evenodd" fill="#FFFFFF" points="60.137,75.79 60.107,75.796 60.154,75.79 		"/>
	</g>
</g>
</svg>
