<?xml version="1.0" encoding="utf-8"?>
<!-- Generator: Adobe Illustrator 16.0.0, SVG Export Plug-In . SVG Version: 6.00 Build 0)  -->
<!DOCTYPE svg PUBLIC "-//W3C//DTD SVG 1.1//EN" "http://www.w3.org/Graphics/SVG/1.1/DTD/svg11.dtd">
<svg version="1.1" xmlns="http://www.w3.org/2000/svg" xmlns:xlink="http://www.w3.org/1999/xlink" x="0px" y="0px" width="100px"
	 height="100px" viewBox="0 0 100 100" enable-background="new 0 0 100 100" xml:space="preserve">
<g id="Layer_1">
</g>
<g id="Layer_2">
	<rect x="120.5" y="-12.529" fill-rule="evenodd" clip-rule="evenodd" fill="#1A1A1A" width="112" height="116.75"/>
	<g>
		<path fill-rule="evenodd" clip-rule="evenodd" fill="#FFFFFF" d="M45.046,69.373c-3.521-0.219-6.884-1.084-10.088-2.545
			c-0.806-0.367-1.463-0.176-2.205,0.161c-5.85,2.658-11.762,2.672-17.478-0.191C8.017,63.163,4.225,55.842,4.956,47.772
			c0.453-5.003,2.809-9.019,6.404-12.354c1.581-1.467,3.448-2.575,5.514-3.274c0.667-0.226,1.047-0.598,1.232-1.293
			c1.499-5.622,4.439-10.394,8.689-14.338c3.833-3.558,8.337-5.896,13.447-7.042c1.781-0.398,3.586-0.645,5.41-0.749
			c0.174-0.01,0.316-0.053,0.367-0.242c0.575,0,1.149,0,1.724,0c1.438,0.553,2.98,0.449,4.467,0.715
			c4.781,0.851,9.082,2.747,12.908,5.711c2.777,2.151,5.162,4.678,7.019,7.677c0.351,0.566,0.935,0.613,1.477,0.662
			c4.757,0.434,8.946,2.219,12.678,5.177c4.265,3.381,7.014,7.766,8.062,13.037c1.35,6.785,0.074,13.078-4.263,18.672
			c-3.962,5.107-9.216,7.996-15.438,9.105c-4.865,0.868-9.563-0.134-14.021-2.201c-0.685-0.318-1.218-0.376-1.935-0.053
			c-3.09,1.395-6.363,2.102-9.733,2.391C47.658,69.373,46.353,69.373,45.046,69.373z M66.66,23.427
			c-1.311-1.973-2.988-3.542-4.836-4.861C54.9,13.62,47.298,12.203,39.18,14.913c-7.562,2.524-12.697,7.722-15.605,15.142
			c-0.256,0.654-0.225,0.867,0.527,0.841c3.224-0.111,6.245,0.69,9.026,2.277c2.509,1.431,4.576,3.355,5.943,5.956
			c0.339,0.646,0.456,1.307,0.232,2.004c-0.35,1.092-1.259,1.601-2.259,1.74c-0.815,0.113-1.583-0.352-2.065-1.069
			c-0.796-1.183-1.585-2.339-2.729-3.253c-3.844-3.072-8.284-3.561-12.671-2.118c-7.417,2.438-11.132,9.722-9.352,16.741
			c2.386,9.413,13.427,13.823,21.691,8.607c1.344-0.849,2.233-0.946,3.673-0.177c4.206,2.251,8.727,3.297,13.55,2.793
			c3.386-0.354,6.601-1.237,9.567-2.903c0.826-0.464,1.412-0.419,2.207,0.066c3.68,2.246,7.666,3.292,11.996,2.826
			c5.529-0.595,10.057-3.007,13.445-7.458c3.129-4.11,4.143-8.768,3.328-13.804c-0.711-4.391-2.869-8.011-6.373-10.761
			c-5.378-4.22-11.361-5.646-17.916-3.355c-2.16,0.755-4,2.126-4.155,4.856c-0.073,1.295-1.47,2.277-2.67,2.146
			c-1.288-0.141-2.22-1.24-2.204-2.649c0.025-2.222,0.914-4.104,2.396-5.705C60.889,25.365,63.623,24.162,66.66,23.427z"/>
		<path fill-rule="evenodd" clip-rule="evenodd" fill="#FFFFFF" d="M49.814,92c-3.481,0.004-6.104-3.23-5.406-6.683
			c0.532-2.63,2.143-4.67,3.782-6.663c1.743-2.121,1.312-2.386,3.292,0.033c1.373,1.678,2.745,3.382,3.553,5.428
			C56.558,87.965,53.873,91.995,49.814,92z"/>
		<path fill-rule="evenodd" clip-rule="evenodd" fill="#FFFFFF" d="M45.046,69.373c1.306,0,2.612,0,3.918,0
			C47.658,69.673,46.353,69.673,45.046,69.373z"/>
	</g>
</g>
</svg>
