<?xml version="1.0" encoding="utf-8"?>
<!-- Generator: Adobe Illustrator 16.0.0, SVG Export Plug-In . SVG Version: 6.00 Build 0)  -->
<!DOCTYPE svg PUBLIC "-//W3C//DTD SVG 1.1//EN" "http://www.w3.org/Graphics/SVG/1.1/DTD/svg11.dtd">
<svg version="1.1" xmlns="http://www.w3.org/2000/svg" xmlns:xlink="http://www.w3.org/1999/xlink" x="0px" y="0px" width="100px"
	 height="100px" viewBox="0 0 100 100" enable-background="new 0 0 100 100" xml:space="preserve">
<g id="Layer_1">
</g>
<g id="Layer_2">
	<rect x="120.5" y="-12.529" fill-rule="evenodd" clip-rule="evenodd" fill="#1A1A1A" width="112" height="116.75"/>
	<g>
		<path fill-rule="evenodd" clip-rule="evenodd" fill="#FFFFFF" d="M46.223,68.368c-3.652-0.2-7.154-1.06-10.457-2.608
			c-0.784-0.367-1.318-0.196-1.956,0.11c-5.774,2.78-11.57,2.771-17.307-0.032c-4.874-2.381-8.092-6.311-9.776-11.406
			C6.063,52.424,5.93,50.264,5.958,48.1c0.053-4.095,1.527-7.689,3.889-10.868c2.055-2.767,4.757-4.88,8.08-6.074
			c0.698-0.252,1.146-0.7,1.391-1.521c1.365-4.591,3.521-8.715,6.839-12.282c5.021-5.396,11.118-8.435,18.383-9.388
			c0.955-0.125,2.006,0.144,2.9-0.431c0.41,0,0.82,0,1.23,0c1.382,0.611,2.892,0.472,4.335,0.699
			c4.625,0.729,8.77,2.543,12.539,5.248c3.133,2.249,5.732,5.021,7.717,8.34c0.266,0.444,0.596,0.447,1.01,0.479
			c5.486,0.426,10.238,2.51,14.273,6.271c3.092,2.883,5.248,6.313,6.438,10.37c1.43,4.87,1.326,9.748-0.596,14.386
			c-3.713,8.95-10.58,13.848-20.201,14.993c-4.545,0.541-8.742-0.469-12.799-2.39c-0.426-0.201-0.777-0.384-1.346-0.131
			c-3.23,1.44-6.613,2.335-10.156,2.571C48.665,68.372,47.444,68.37,46.223,68.368z M24.367,29.917
			c1.61-0.021,3.004-0.04,4.375,0.24c4.9,1.004,8.78,3.5,11.343,7.859c0.779,1.324,0.432,2.747-0.712,3.458
			c-1.171,0.729-2.667,0.414-3.433-0.817c-2.694-4.333-6.64-6.034-11.641-5.825c-7.395,0.311-13.311,6.355-13.479,14.054
			c-0.055,2.548,0.745,4.982,2.125,7.171c2.964,4.699,7.34,7.039,12.786,7.006c2.89-0.018,5.715-0.969,8.099-2.799
			c0.66-0.508,1.188-0.523,1.952-0.105c4.539,2.481,9.324,3.892,14.584,3.229c3.115-0.393,6.127-1.112,8.875-2.649
			c1.148-0.643,1.986-0.644,3.17,0.068c4.49,2.705,9.373,3.306,14.441,2.068c7.535-1.838,13.383-8.004,14.063-16.102
			c0.607-7.229-2.418-12.986-8.553-16.776c-5.531-3.415-11.465-4.424-17.498-1.075c-1.502,0.834-2.643,2.054-2.598,4.017
			c0.025,1.136-1.512,2.296-2.682,2.147c-1.271-0.16-2.422-1.664-2.266-2.873c0.566-4.383,3.303-6.985,7.121-8.676
			c1.037-0.459,2.141-0.764,3.242-1.149c-6.213-8.143-16.771-11.521-26.25-8.828C32.967,15.965,27.439,21.568,24.367,29.917z"/>
		<path fill-rule="evenodd" clip-rule="evenodd" fill="#FFFFFF" d="M41.971,90.961c-3.782,0.018-6.378-3.587-5.242-7.361
			c0.873-2.903,2.865-5.109,4.777-7.354c0.393-0.461,0.709-0.266,1.002,0.083c1.764,2.102,3.59,4.174,4.646,6.746
			C48.717,86.874,46.013,90.94,41.971,90.961z"/>
		<path fill-rule="evenodd" clip-rule="evenodd" fill="#FFFFFF" d="M65.457,85.41c-0.072,2.328-1.25,4.001-3.324,5.005
			c-2.023,0.981-4.006,0.709-5.764-0.668c-1.865-1.46-2.451-3.459-1.918-5.709c0.742-3.142,2.908-5.438,4.898-7.825
			c0.262-0.313,0.555-0.341,0.826-0.023c2.104,2.454,4.289,4.857,5.186,8.082C65.457,84.619,65.426,85.002,65.457,85.41z"/>
		<path fill-rule="evenodd" clip-rule="evenodd" fill="#FFFFFF" d="M46.223,68.368c1.221,0.002,2.441,0.004,3.662,0.005
			C48.665,68.659,47.444,68.666,46.223,68.368z"/>
	</g>
</g>
</svg>
