<?xml version="1.0" encoding="utf-8"?>
<!-- Generator: Adobe Illustrator 16.0.0, SVG Export Plug-In . SVG Version: 6.00 Build 0)  -->
<!DOCTYPE svg PUBLIC "-//W3C//DTD SVG 1.1//EN" "http://www.w3.org/Graphics/SVG/1.1/DTD/svg11.dtd">
<svg version="1.1" xmlns="http://www.w3.org/2000/svg" xmlns:xlink="http://www.w3.org/1999/xlink" x="0px" y="0px" width="100px"
	 height="100px" viewBox="0 0 100 100" enable-background="new 0 0 100 100" xml:space="preserve">
<g id="Layer_1">
</g>
<g id="Layer_2">
	<rect x="120.5" y="-12.529" fill-rule="evenodd" clip-rule="evenodd" fill="#1A1A1A" width="112" height="116.75"/>
	<g>
		<path fill-rule="evenodd" clip-rule="evenodd" fill="#FFFFFF" d="M51.219,8.703c1.804,0.7,3.748,0.82,5.586,1.438
			c6.428,2.163,11.567,5.997,15.384,11.581c0.706,1.032,1.468,1.396,2.744,1.549c4.053,0.482,7.813,1.954,11.083,4.422
			c4.476,3.379,7.601,7.737,8.829,13.283c1.585,7.156,0.114,13.642-4.484,19.385c-4.167,5.204-9.682,7.88-16.198,8.811
			c-4.483,0.64-8.647-0.328-12.664-2.169c-0.89-0.408-1.613-0.459-2.496-0.066c-3.049,1.354-6.251,2.021-9.587,2.282
			c-4.952,0.386-9.604-0.593-14.067-2.646c-0.724-0.333-1.258-0.03-1.84,0.242c-2.698,1.264-5.541,2.157-8.509,2.055
			c-8.827-0.303-15.891-5.2-18.555-13.428C4.364,49.02,5.633,43.073,9.76,37.827c2.127-2.703,4.881-4.771,8.183-5.933
			c0.57-0.2,0.768-0.478,0.892-0.961c1.085-4.251,3.041-8.113,5.849-11.425c2.217-2.613,4.787-4.907,7.813-6.698
			c3.546-2.098,7.336-3.269,11.353-3.886c0.091-0.015,0.163-0.146,0.244-0.222C46.469,8.703,48.844,8.703,51.219,8.703z
			 M47.715,13.663c-0.696,0-1.397-0.056-2.086,0.013c-0.975,0.097-1.955,0.225-2.908,0.444c-8.829,2.031-14.874,7.328-18.32,15.666
			c-0.302,0.729-0.361,1.139,0.651,1.043c1.063-0.1,2.129,0.035,3.175,0.235c5.002,0.962,8.929,3.512,11.519,7.954
			c0.757,1.299,0.347,2.721-0.845,3.41c-1.209,0.698-2.617,0.335-3.399-0.928c-2.576-4.156-6.375-5.878-11.172-5.77
			c-8.202,0.184-13.868,6.764-13.842,14.03c0.016,4.25,1.742,7.927,5.131,10.723c4.997,4.122,11.58,4.547,17.071,1.13
			c1.311-0.815,2.214-0.896,3.536-0.12c3.62,2.127,7.663,2.994,11.794,2.93c4.131-0.065,8.089-1.208,11.731-3.238
			c0.556-0.31,0.922-0.234,1.431,0.076c3.68,2.251,7.613,3.469,11.998,3.033c5.339-0.53,9.787-2.691,13.224-6.856
			c3.608-4.375,4.943-9.385,3.764-14.901c-1.162-5.438-4.265-9.561-9.223-12.213c-4.648-2.487-9.484-3.216-14.543-1.474
			c-2.32,0.8-4.246,2.133-4.578,4.802c-0.162,1.305-0.823,2.024-2.111,2.259c-1.169,0.214-2.214-0.454-2.575-1.738
			c-0.519-1.846,0.178-3.568,1.128-5.043c1.87-2.902,4.679-4.583,8-5.448c0.43-0.112,1.378-0.056,0.577-0.985
			C61.803,16.85,55.473,13.73,47.715,13.663z"/>
		<path fill-rule="evenodd" clip-rule="evenodd" fill="#FFFFFF" d="M47.249,90.978c-3.619-0.008-6.207-3.375-5.298-7.038
			c0.764-3.077,2.896-5.348,4.863-7.692c0.38-0.452,0.73-0.198,1.02,0.139c1.733,2.016,3.476,4.043,4.545,6.503
			C54.072,86.786,51.373,90.986,47.249,90.978z"/>
		<path fill-rule="evenodd" clip-rule="evenodd" fill="#FFFFFF" d="M25.165,85.663c0.017-1.688,0.536-3.057,1.277-4.342
			c1.002-1.74,2.262-3.297,3.562-4.822c0.359-0.421,0.708-0.746,1.183-0.186c1.929,2.272,3.97,4.496,4.901,7.403
			c0.715,2.228,0.11,4.223-1.652,5.769c-1.742,1.527-3.758,1.959-5.921,1.009C26.367,89.551,25.309,87.812,25.165,85.663z"/>
		<path fill-rule="evenodd" clip-rule="evenodd" fill="#FFFFFF" d="M69.675,85.416c-0.114,2.341-1.273,4.017-3.356,5.007
			c-2.13,1.013-4.158,0.668-5.934-0.846c-1.807-1.539-2.238-3.565-1.654-5.779c0.786-2.98,2.858-5.183,4.746-7.486
			c0.288-0.352,0.608-0.427,0.923-0.065c2.116,2.436,4.296,4.834,5.166,8.065C69.659,84.66,69.641,85.039,69.675,85.416z"/>
	</g>
</g>
</svg>
