<?xml version="1.0" encoding="utf-8"?>
<!-- Generator: Adobe Illustrator 16.0.0, SVG Export Plug-In . SVG Version: 6.00 Build 0)  -->
<!DOCTYPE svg PUBLIC "-//W3C//DTD SVG 1.1//EN" "http://www.w3.org/Graphics/SVG/1.1/DTD/svg11.dtd">
<svg version="1.1" xmlns="http://www.w3.org/2000/svg" xmlns:xlink="http://www.w3.org/1999/xlink" x="0px" y="0px" width="100px"
	 height="100px" viewBox="0 0 100 100" enable-background="new 0 0 100 100" xml:space="preserve">
<g id="Layer_1">
</g>
<g id="Layer_2">
	<rect x="121.75" y="5.25" fill-rule="evenodd" clip-rule="evenodd" fill="#1A1A1A" width="112" height="116.75"/>
	<g>
		<path fill-rule="evenodd" clip-rule="evenodd" fill="#FFFFFF" d="M1.092,60.177c0.478-1.037,0.271-2.202,0.636-3.27
			c1.043-3.057,2.533-5.771,5.138-7.835c1.368-1.084,2.793-1.964,4.433-2.512c0.578-0.193,0.662-0.728,0.783-1.166
			c0.97-3.521,2.71-6.589,5.05-9.396c2.072-2.485,4.545-4.399,7.391-5.83c2.88-1.447,5.948-2.225,9.2-2.467
			c4.487-0.333,8.703,0.534,12.678,2.506c3.763,1.867,6.912,4.553,9.148,8.127c0.724,1.157,1.701,1.039,2.651,1.197
			c3.641,0.608,6.899,2.037,9.684,4.455c2.904,2.521,4.981,5.616,5.93,9.371c1.225,4.846,0.747,9.546-1.806,13.869
			c-3.352,5.68-8.392,8.865-14.972,9.61c-3.69,0.418-7.174-0.246-10.499-1.839c-0.478-0.229-0.86-0.305-1.385-0.07
			c-3.557,1.585-7.317,2.26-11.181,2.029c-2.85-0.17-5.629-0.865-8.236-2.098c-0.551-0.26-1.002-0.3-1.581-0.007
			c-6.329,3.2-13.748,1.765-18.533-3.096c-2.019-2.049-3.294-4.438-3.985-7.224c-0.211-0.849-0.041-1.777-0.542-2.554
			C1.092,61.379,1.092,60.777,1.092,60.177z M70.374,58.18c-0.049-3.824-0.637-5.809-3.194-9.09
			c-3.703-4.754-8.753-6.271-14.576-5.626c-1.228,0.136-2.375,0.627-3.397,1.306c-1.085,0.721-1.993,1.588-2.106,3.053
			c-0.099,1.275-1.096,2.04-2.3,1.936c-1.073-0.093-1.675-0.932-1.664-2.278c0.014-1.441,0.542-2.683,1.396-3.815
			c1.626-2.151,3.858-3.313,6.419-3.905c0.59-0.137,0.557-0.312,0.236-0.696c-1.858-2.234-4.074-4.023-6.676-5.313
			c-3.382-1.677-6.928-2.371-10.729-2.045c-2.567,0.22-5.004,0.792-7.259,1.968c-4.696,2.446-8.071,6.125-10.005,11.096
			c-0.264,0.678-0.191,0.83,0.552,0.846c1.744,0.038,3.472,0.24,5.11,0.917c2.926,1.21,5.34,3.018,6.879,5.854
			c0.399,0.735,0.408,1.443-0.162,2.113c-1.036,1.223-2.429,1.17-3.299-0.208c-1.135-1.796-2.623-3.2-4.608-3.909
			c-3.507-1.25-6.933-1.056-10.222,0.863c-3.823,2.229-6.155,7.125-5.387,11.498c1.503,8.563,11.107,12.57,18.421,7.661
			c0.682-0.458,1.135-0.458,1.852-0.071c6.429,3.46,12.919,3.525,19.41,0.164c0.653-0.338,1.116-0.309,1.724,0.065
			c3.627,2.232,7.542,2.895,11.708,2.013C65.588,71.074,70.635,64.576,70.374,58.18z"/>
		<path fill-rule="evenodd" clip-rule="evenodd" fill="#FFFFFF" d="M82.994,44.206c0,1.745-0.26,3.45-0.777,5.115
			c-0.455,1.466-1.46,2.136-2.634,1.765c-1.208-0.382-1.647-1.449-1.202-2.928c2.042-6.788-1.453-13.667-8.018-15.655
			c-3.931-1.191-7.567-0.459-10.88,1.947c-0.4,0.292-0.755,0.646-1.277,0.749c-0.908,0.177-1.786-0.2-2.211-0.985
			c-0.46-0.853-0.29-1.833,0.517-2.524c1.905-1.635,4.108-2.707,6.542-3.285C73.236,25.985,82.993,33.723,82.994,44.206z"/>
		<path fill-rule="evenodd" clip-rule="evenodd" fill="#FFFFFF" d="M94.633,58.43c-0.009,2.026-2.021,3.399-3.711,2.469
			c-2.091-1.15-4.099-2.467-6.07-3.814c-1.102-0.755-1.251-2.375-0.507-3.5c0.718-1.088,2.192-1.58,3.337-0.915
			c2.037,1.186,4.019,2.47,5.983,3.774C94.358,56.902,94.682,57.656,94.633,58.43z"/>
		<path fill-rule="evenodd" clip-rule="evenodd" fill="#FFFFFF" d="M92.968,47.19c-1.033,0-2.068,0.021-3.101-0.004
			c-1.546-0.038-2.641-1.078-2.695-2.518c-0.056-1.508,0.975-2.717,2.531-2.782c2.163-0.089,4.332-0.111,6.497-0.079
			c1.607,0.024,2.737,1.236,2.706,2.745c-0.032,1.495-1.208,2.584-2.838,2.608c-1.033,0.015-2.067,0.003-3.101,0.003
			C92.968,47.172,92.968,47.181,92.968,47.19z"/>
		<path fill-rule="evenodd" clip-rule="evenodd" fill="#FFFFFF" d="M92.185,27.938c1.327-0.006,2.404,0.846,2.702,2.062
			c0.288,1.174-0.203,2.474-1.339,2.929c-2.216,0.887-4.466,1.706-6.743,2.416c-1.313,0.409-2.572-0.374-3.038-1.624
			c-0.463-1.244-0.016-2.747,1.193-3.243c2.239-0.918,4.544-1.679,6.824-2.497C91.936,27.927,92.113,27.945,92.185,27.938z"/>
		<path fill-rule="evenodd" clip-rule="evenodd" fill="#FFFFFF" d="M84.221,69.226c0.011,1.308-0.634,2.222-1.813,2.614
			c-1.116,0.373-2.378,0.026-2.986-1.014c-1.177-2.01-2.309-4.053-3.347-6.138c-0.625-1.256,0.033-2.802,1.26-3.405
			c1.216-0.597,2.737-0.223,3.42,0.959c1.116,1.932,2.153,3.908,3.219,5.868C84.168,68.469,84.256,68.858,84.221,69.226z"/>
		<path fill-rule="evenodd" clip-rule="evenodd" fill="#FFFFFF" d="M57.761,23.766c-0.01,1.145-0.635,2.074-1.626,2.477
			c-1.006,0.408-2.263,0.213-2.943-0.623c-1.453-1.783-2.872-3.596-4.225-5.455c-0.833-1.145-0.506-2.738,0.59-3.577
			c1.101-0.843,2.708-0.735,3.606,0.361c1.436,1.754,2.8,3.566,4.176,5.368C57.669,22.749,57.813,23.268,57.761,23.766z"/>
		<path fill-rule="evenodd" clip-rule="evenodd" fill="#FFFFFF" d="M74.75,24.828c-0.051-0.574,0.199-1.106,0.547-1.613
			c1.146-1.677,2.273-3.368,3.434-5.036c0.919-1.321,2.516-1.635,3.763-0.778c1.188,0.816,1.509,2.446,0.67,3.723
			c-1.17,1.782-2.365,3.548-3.593,5.291c-0.753,1.067-1.925,1.408-3.088,1.002C75.38,27.031,74.744,26.104,74.75,24.828z"/>
		<path fill-rule="evenodd" clip-rule="evenodd" fill="#FFFFFF" d="M63.537,17.413c0-1.065-0.017-2.131,0.004-3.196
			c0.028-1.415,1.064-2.476,2.433-2.527c1.529-0.057,2.737,0.9,2.813,2.35c0.115,2.259,0.184,4.523,0.203,6.785
			c0.013,1.454-1.098,2.507-2.53,2.538c-1.513,0.032-2.619-0.955-2.718-2.458c-0.076-1.163-0.115-2.327-0.172-3.49
			C63.559,17.414,63.548,17.414,63.537,17.413z"/>
	</g>
</g>
</svg>
