<?xml version="1.0" encoding="utf-8"?>
<!-- Generator: Adobe Illustrator 16.0.0, SVG Export Plug-In . SVG Version: 6.00 Build 0)  -->
<!DOCTYPE svg PUBLIC "-//W3C//DTD SVG 1.1//EN" "http://www.w3.org/Graphics/SVG/1.1/DTD/svg11.dtd">
<svg version="1.1" xmlns="http://www.w3.org/2000/svg" xmlns:xlink="http://www.w3.org/1999/xlink" x="0px" y="0px" width="100px"
	 height="100px" viewBox="0 0 100 100" enable-background="new 0 0 100 100" xml:space="preserve">
<g id="Layer_1">
</g>
<g id="Layer_2">
	<rect x="120.5" y="-12.529" fill-rule="evenodd" clip-rule="evenodd" fill="#1A1A1A" width="112" height="116.75"/>
	<g>
		<path fill-rule="evenodd" clip-rule="evenodd" fill="#FFFFFF" d="M36.746,24.356c0.686,0.32,1.445,0.296,2.166,0.46
			c5.517,1.253,9.866,4.228,13.039,8.893c0.453,0.666,0.96,0.864,1.699,0.935c7.454,0.721,13.832,7,14.626,14.366
			c0.878,8.142-4.326,15.655-12.27,17.71c-4.179,1.08-8.222,0.727-12.107-1.178c-0.348-0.17-0.626-0.167-0.972-0.019
			c-5.753,2.468-11.499,2.405-17.208-0.128c-0.509-0.225-0.821-0.037-1.197,0.146c-8.018,3.946-17.603-0.561-19.576-9.207
			c-1.451-6.358,2.025-12.893,8.203-15.385c0.457-0.185,0.75-0.387,0.911-0.898c2.772-8.838,8.679-14.087,17.876-15.542
			c0.116-0.019,0.229-0.025,0.278-0.154C33.724,24.356,35.235,24.356,36.746,24.356z M48.392,34.795
			c-3.569-4.916-10.408-8.145-17.658-6.566c-7.411,1.613-11.885,7.618-12.931,11.815c0.386,0,0.763-0.018,1.138,0.003
			c4.266,0.233,7.613,2.064,9.856,5.749c0.591,0.97,0.311,1.977-0.579,2.487c-0.856,0.494-1.829,0.229-2.401-0.682
			c-1.82-2.899-4.476-4.123-7.85-4.078c-6.793,0.09-11.599,6.856-9.247,13.324c2.22,6.104,9.839,8.588,15.286,4.937
			c0.792-0.53,1.324-0.526,2.146-0.095c5.506,2.899,11.055,2.885,16.583,0.035c0.576-0.296,0.983-0.309,1.562,0.049
			c2.984,1.84,6.222,2.441,9.685,1.828c5.556-0.982,9.847-5.275,10.773-10.797c0.863-5.149-1.769-10.444-6.639-13.112
			c-3.294-1.804-6.792-2.351-10.396-1.019c-1.644,0.607-3.069,1.514-3.203,3.589c-0.057,0.893-0.941,1.471-1.812,1.409
			c-0.926-0.066-1.584-0.761-1.601-1.729c-0.033-1.941,0.862-3.454,2.257-4.706C44.778,35.965,46.494,35.274,48.392,34.795z"/>
		<path fill-rule="evenodd" clip-rule="evenodd" fill="#FFFFFF" d="M94.617,53.641c-0.309,0.47-0.283,1.033-0.433,1.549
			c-0.921,3.189-2.773,5.84-5.369,7.748c-5.027,3.694-10.654,4.789-16.725,2.93c-1.143-0.35-1.661-1.219-1.366-2.24
			c0.286-0.985,1.222-1.426,2.381-1.095c4.088,1.168,8.018,0.96,11.756-1.247c2.111-1.246,3.889-2.805,5.083-4.975
			c1.975-3.588,1.426-8.082-1.414-11.624c-2.458-3.065-5.726-4.329-9.564-4.257c-1.883,0.035-3.207,1.347-3.439,3.271
			c-0.145,1.194-0.797,1.856-1.801,1.829c-1.031-0.028-1.706-0.775-1.678-1.927c0.051-2,0.857-3.671,2.399-4.923
			c0.601-0.486,0.516-0.76,0.086-1.279c-2.149-2.6-4.713-4.53-8.076-5.268c-1.178-0.258-1.732-1.099-1.503-2.144
			c0.222-1.012,1.106-1.517,2.303-1.254c3.578,0.786,6.53,2.648,8.989,5.321c0.607,0.661,1.188,1.357,1.697,2.096
			c0.405,0.589,0.869,0.794,1.584,0.802c7.181,0.078,12.825,4.482,14.658,11.375c0.16,0.605,0.13,1.255,0.432,1.824
			C94.617,51.316,94.617,52.479,94.617,53.641z"/>
	</g>
</g>
</svg>
