<?xml version="1.0" encoding="utf-8"?>
<!-- Generator: Adobe Illustrator 16.0.0, SVG Export Plug-In . SVG Version: 6.00 Build 0)  -->
<!DOCTYPE svg PUBLIC "-//W3C//DTD SVG 1.1//EN" "http://www.w3.org/Graphics/SVG/1.1/DTD/svg11.dtd">
<svg version="1.1" xmlns="http://www.w3.org/2000/svg" xmlns:xlink="http://www.w3.org/1999/xlink" x="0px" y="0px" width="100px"
	 height="100px" viewBox="0 0 100 100" enable-background="new 0 0 100 100" xml:space="preserve">
<g id="Layer_1">
</g>
<g id="Layer_2">
	<rect x="-159.001" y="86.575" fill-rule="evenodd" clip-rule="evenodd" fill="#1A1A1A" width="100" height="100"/>
	<path fill-rule="evenodd" clip-rule="evenodd" fill="#FFFFFF" d="M49.905,15.84c9.256,0.321,18.245,5.033,24.746,14.331
		c0.685,0.98,1.403,1.41,2.559,1.529c10.678,1.106,19.762,9.092,22.147,19.415c3.066,13.271-5.125,26.623-18.467,30.034
		c-6.387,1.634-12.597,1.116-18.552-1.797c-0.575-0.281-1.045-0.277-1.627-0.03c-8.831,3.755-17.646,3.651-26.418-0.193
		c-0.588-0.258-1.008-0.251-1.594,0.041C19.537,85.73,4.4,78.04,1.962,63.574c-1.521-9.034,3.938-18.52,12.789-22.081
		c0.951-0.383,1.357-0.903,1.623-1.841C20.373,25.533,33.296,15.767,49.905,15.84z M22.04,40.028c0.366,0,0.719-0.002,1.071,0.001
		c0.403,0.004,0.807-0.006,1.208,0.024c6.367,0.473,11.319,3.329,14.671,8.805c0.912,1.488,0.505,3.066-0.84,3.847
		c-1.344,0.779-2.898,0.337-3.779-1.128c-0.559-0.927-1.205-1.77-1.988-2.517c-4.134-3.94-9.108-4.431-14.274-3.045
		C10.249,48.124,5.551,56.624,7.632,64.479c2.785,10.511,15.072,15.007,24.327,8.855c0.943-0.627,1.579-0.68,2.6-0.133
		c8.632,4.628,17.342,4.704,26.041,0.17c0.875-0.455,1.472-0.367,2.279,0.131c5.092,3.136,10.588,3.931,16.376,2.523
		c11.251-2.738,17.843-14.191,14.481-25.082c-2.511-8.131-10.543-14.019-19.273-14.112c-3.34-0.036-6.506,0.573-9.2,2.717
		c-1.076,0.857-1.848,1.9-1.962,3.369c-0.134,1.732-1.369,2.843-2.87,2.708c-1.559-0.14-2.552-1.331-2.446-3.102
		c0.243-4.146,2.744-6.735,6.125-8.686c1.577-0.911,3.318-1.42,5.085-1.928c-5.521-7.588-16.06-12.521-27.2-10.102
		C30.466,24.311,23.65,33.639,22.04,40.028z"/>
</g>
</svg>
