<?xml version="1.0" encoding="utf-8"?>
<!-- Generator: Adobe Illustrator 16.0.0, SVG Export Plug-In . SVG Version: 6.00 Build 0)  -->
<!DOCTYPE svg PUBLIC "-//W3C//DTD SVG 1.1//EN" "http://www.w3.org/Graphics/SVG/1.1/DTD/svg11.dtd">
<svg version="1.1" xmlns="http://www.w3.org/2000/svg" xmlns:xlink="http://www.w3.org/1999/xlink" x="0px" y="0px" width="100px"
	 height="100px" viewBox="0 0 100 100" enable-background="new 0 0 100 100" xml:space="preserve">
<g id="Layer_1">
</g>
<g id="Layer_2">
	<rect x="120.5" y="-12.529" fill-rule="evenodd" clip-rule="evenodd" fill="#1A1A1A" width="112" height="116.75"/>
	<g>
		<path fill-rule="evenodd" clip-rule="evenodd" fill="#FFFFFF" d="M71.225,66.975c-3.831,0.159-7.408-0.78-10.812-2.473
			c-0.488-0.242-0.91-0.299-1.466-0.03c-4.752,2.304-9.831,2.841-15.006,2.449c-3.24-0.245-6.328-1.254-9.269-2.653
			c-0.481-0.229-0.867-0.207-1.329,0.049c-3.65,2.022-7.648,2.576-11.672,2.07c-3.482-0.438-6.658-1.938-9.48-4.164
			c-3.249-2.564-5.294-5.861-6.429-9.763c-1.167-4.012-0.994-7.982,0.518-11.905c1.047-2.718,2.668-5.036,4.741-7.034
			c1.756-1.692,3.846-2.945,6.105-3.824c0.841-0.328,1.111-0.855,1.295-1.549c0.917-3.455,2.5-6.597,4.568-9.483
			C27.437,12.459,33.488,8.51,40.902,7c8.844-1.8,17.058,0.071,24.334,5.491c2.785,2.074,5.159,4.603,6.947,7.618
			c0.416,0.702,1.097,0.757,1.721,0.814c5.102,0.467,9.487,2.52,13.328,5.854c4.218,3.661,6.781,8.292,7.527,13.767
			c0.95,6.975-0.913,13.201-5.688,18.501c-3.749,4.162-8.449,6.516-13.851,7.681C73.884,67.015,72.551,66.858,71.225,66.975z
			 M45.5,11.314c-2.67-0.032-6.583,0.944-10.258,3.01c-5.081,2.856-8.671,7.009-11.014,12.291c-0.841,1.895-0.812,1.844,1.216,1.932
			c6.009,0.26,10.634,2.945,13.77,8.092c0.815,1.339,0.398,2.792-0.848,3.498c-1.16,0.656-2.587,0.321-3.314-0.906
			c-3.501-5.901-10.154-6.95-15.855-4.948c-6.138,2.155-10.324,8.67-8.977,15.561c0.957,4.898,3.757,8.476,8.36,10.483
			c5.056,2.204,9.865,1.496,14.398-1.52c0.561-0.373,0.934-0.491,1.686-0.08c4.13,2.262,8.521,3.545,13.318,3.332
			c3.837-0.17,7.409-1.15,10.759-2.965c0.837-0.453,1.516-0.446,2.297,0.06c4.138,2.677,8.665,3.45,13.479,2.626
			c9.545-1.635,16.854-10.488,15.404-20.315c-0.731-4.964-3.126-8.814-6.949-11.882c-2.886-2.315-6.247-3.571-9.89-3.908
			c-3.087-0.286-6.177-0.101-8.898,1.675c-1.512,0.986-2.833,2.132-2.831,4.201c0.001,0.946-1.246,2.101-2.333,2.108
			c-0.941,0.007-1.77-0.401-2.246-1.355c-0.585-1.17-0.255-2.298,0.095-3.404c1.242-3.934,4.282-5.943,7.938-7.228
			c2.164-0.761,2.199-0.747,0.538-2.473C60.347,14.006,54.269,11.311,45.5,11.314z"/>
		<path fill-rule="evenodd" clip-rule="evenodd" fill="#FFFFFF" d="M39.565,77.538c-0.044,1.346-0.5,2.563-1.208,3.686
			c-2.355,3.735-4.716,7.467-7.095,11.188c-0.831,1.3-1.889,2.369-3.388,2.896c-1.673,0.588-2.866-0.104-3.099-1.856
			c-0.19-1.435,0.239-2.782,0.983-3.978c2.485-3.991,5.016-7.954,7.553-11.913c0.649-1.014,1.525-1.814,2.616-2.353
			C38.04,74.165,39.621,75.18,39.565,77.538z"/>
		<path fill-rule="evenodd" clip-rule="evenodd" fill="#FFFFFF" d="M56.458,77.199c0.019,1.748-0.546,3.012-1.294,4.2
			c-2.288,3.633-4.593,7.256-6.897,10.878c-0.852,1.339-1.913,2.459-3.44,3.021c-1.742,0.643-3.036-0.198-3.16-2.052
			c-0.093-1.395,0.324-2.686,1.048-3.847c2.445-3.92,4.916-7.824,7.412-11.713c0.668-1.04,1.547-1.903,2.683-2.462
			C54.966,74.164,56.47,75.101,56.458,77.199z"/>
		<path fill-rule="evenodd" clip-rule="evenodd" fill="#FFFFFF" d="M71.223,77.576c-0.004,1.354-0.494,2.559-1.2,3.679
			c-2.335,3.701-4.68,7.396-7.03,11.086c-0.782,1.229-1.767,2.265-3.122,2.863c-1.971,0.87-3.456-0.112-3.444-2.281
			c0.007-1.253,0.374-2.435,1.033-3.486c2.475-3.95,4.974-7.885,7.486-11.811c0.624-0.974,1.448-1.776,2.481-2.328
			C69.674,74.1,71.248,75.049,71.223,77.576z"/>
	</g>
</g>
</svg>
