<?xml version="1.0" encoding="utf-8"?>
<!-- Generator: Adobe Illustrator 16.0.0, SVG Export Plug-In . SVG Version: 6.00 Build 0)  -->
<!DOCTYPE svg PUBLIC "-//W3C//DTD SVG 1.1//EN" "http://www.w3.org/Graphics/SVG/1.1/DTD/svg11.dtd">
<svg version="1.1" xmlns="http://www.w3.org/2000/svg" xmlns:xlink="http://www.w3.org/1999/xlink" x="0px" y="0px" width="100px"
	 height="100px" viewBox="0 0 100 100" enable-background="new 0 0 100 100" xml:space="preserve">
<g id="Layer_1">
</g>
<g id="Layer_2">
	<rect x="120.5" y="-12.529" fill-rule="evenodd" clip-rule="evenodd" fill="#1A1A1A" width="112" height="116.75"/>
	<g>
		<path fill-rule="evenodd" clip-rule="evenodd" fill="#FFFFFF" d="M35.417,17.808c7.32,0.397,13.06,3.605,17.162,9.706
			c0.234,0.348,0.483,0.489,0.904,0.523c8.956,0.74,15.645,8.325,15.252,17.275c-0.319,7.267-6.122,13.757-13.511,15.135
			c-3.738,0.696-7.33,0.275-10.765-1.36c-0.451-0.215-0.824-0.25-1.305-0.049c-5.67,2.382-11.332,2.331-16.961-0.144
			c-0.444-0.195-0.771-0.167-1.208,0.048c-7.981,3.927-17.339-0.29-19.568-8.799c-1.651-6.304,1.718-13.049,7.853-15.615
			c0.718-0.3,1.068-0.674,1.283-1.417c2.521-8.755,10.368-14.896,19.465-15.278C34.48,17.814,34.942,17.718,35.417,17.808z
			 M33.647,21.287c-6.966,0.7-12.181,4.364-15.17,11.134c-0.476,1.077-0.452,1.057,0.755,1.101c4.318,0.158,7.672,2.025,9.942,5.73
			c0.579,0.945,0.303,1.98-0.564,2.493c-0.836,0.496-1.83,0.225-2.401-0.684c-1.802-2.863-4.416-4.08-7.767-4.077
			c-6.397,0.007-11.02,6.003-9.731,11.888c1.569,7.165,9.711,10.359,15.898,6.225c0.628-0.418,1.057-0.416,1.695-0.071
			c5.571,3.01,11.195,3.038,16.816,0.146c0.606-0.313,1.009-0.28,1.569,0.057c3.785,2.282,7.786,2.692,11.945,1.199
			c5.915-2.124,9.377-7.929,8.454-14.099c-0.782-5.23-5.216-9.684-10.61-10.648c-2.514-0.449-4.977-0.385-7.285,0.855
			c-1.186,0.637-2.145,1.463-2.27,2.964c-0.09,1.07-0.888,1.692-1.89,1.608c-0.966-0.079-1.614-0.875-1.566-1.947
			c0.062-1.384,0.578-2.595,1.467-3.645c1.363-1.611,3.151-2.531,5.15-3.066c0.568-0.152,0.764-0.253,0.301-0.787
			C44.592,23.295,39.813,21.179,33.647,21.287z"/>
		<path fill-rule="evenodd" clip-rule="evenodd" fill="#FFFFFF" d="M77.636,60.13c-1.979-0.023-3.541-0.332-5.078-0.772
			c-1.216-0.349-1.784-1.242-1.477-2.251c0.316-1.044,1.215-1.451,2.453-1.101c3.427,0.971,6.843,1.032,10.121-0.47
			c3.265-1.497,6.063-3.627,7.281-7.167c1.388-4.033,0.212-7.625-2.485-10.732c-2.498-2.878-5.795-3.942-9.536-3.691
			c-1.579,0.105-2.895,1.519-3.032,3.112c-0.111,1.289-0.804,2.012-1.857,1.937c-1.083-0.077-1.731-0.965-1.613-2.253
			c0.177-1.915,1.006-3.501,2.508-4.701c0.441-0.353,0.471-0.563,0.109-1.013c-2.17-2.706-4.796-4.691-8.251-5.446
			c-1.089-0.237-1.7-1.135-1.48-2.089c0.24-1.037,1.147-1.558,2.276-1.308c4.341,0.958,7.733,3.386,10.324,6.907
			c0.774,1.053,1.596,1.355,2.815,1.372c8.772,0.121,15.828,8.956,13.993,17.484c-0.763,3.542-2.775,6.394-5.589,8.477
			C85.661,58.982,81.723,60.518,77.636,60.13z"/>
		<path fill-rule="evenodd" clip-rule="evenodd" fill="#FFFFFF" d="M42.156,78.65c-0.003-0.956,0.304-1.825,0.805-2.621
			c1.696-2.696,3.402-5.387,5.117-8.071c0.458-0.716,1.044-1.32,1.79-1.743c0.652-0.37,1.355-0.631,2.046-0.168
			c0.707,0.473,0.795,1.229,0.709,2.016c-0.1,0.914-0.465,1.728-0.951,2.494c-1.615,2.542-3.233,5.082-4.842,7.628
			c-0.554,0.875-1.233,1.615-2.179,2.062C43.211,80.925,42.172,80.251,42.156,78.65z"/>
		<path fill-rule="evenodd" clip-rule="evenodd" fill="#FFFFFF" d="M52.615,78.639c0.004-0.957,0.315-1.823,0.816-2.621
			c1.696-2.696,3.4-5.388,5.113-8.073c0.457-0.718,1.048-1.32,1.796-1.737c0.65-0.361,1.358-0.628,2.046-0.153
			c0.697,0.48,0.799,1.232,0.695,2.021c-0.108,0.847-0.404,1.626-0.859,2.345c-1.658,2.617-3.319,5.233-4.982,7.848
			c-0.521,0.822-1.18,1.51-2.061,1.944C53.704,80.939,52.619,80.269,52.615,78.639z"/>
		<path fill-rule="evenodd" clip-rule="evenodd" fill="#FFFFFF" d="M30.194,78.771c-0.013-1.189,0.344-2.038,0.843-2.831
			c1.65-2.623,3.308-5.24,4.972-7.853c0.553-0.869,1.247-1.608,2.2-2.042c1.334-0.609,2.401,0.048,2.458,1.519
			c0.038,0.955-0.269,1.841-0.765,2.634c-1.733,2.775-3.49,5.536-5.257,8.289c-0.441,0.689-1.031,1.251-1.761,1.646
			C31.293,80.994,30.18,80.337,30.194,78.771z"/>
	</g>
</g>
</svg>
