<?xml version="1.0" encoding="utf-8"?>
<!-- Generator: Adobe Illustrator 16.0.0, SVG Export Plug-In . SVG Version: 6.00 Build 0)  -->
<!DOCTYPE svg PUBLIC "-//W3C//DTD SVG 1.1//EN" "http://www.w3.org/Graphics/SVG/1.1/DTD/svg11.dtd">
<svg version="1.1" xmlns="http://www.w3.org/2000/svg" xmlns:xlink="http://www.w3.org/1999/xlink" x="0px" y="0px" width="100px"
	 height="100px" viewBox="0 0 100 100" enable-background="new 0 0 100 100" xml:space="preserve">
<g id="Layer_1">
</g>
<g id="Layer_2">
	<rect x="120.5" y="-12.529" fill-rule="evenodd" clip-rule="evenodd" fill="#1A1A1A" width="112" height="116.75"/>
	<g>
		<path fill-rule="evenodd" clip-rule="evenodd" fill="#FFFFFF" d="M36.223,26.593c7.775,0.262,13.943,3.511,18.372,9.952
			c0.361,0.525,0.739,0.767,1.38,0.823c8.402,0.747,15.174,7.688,15.688,16.045c0.509,8.285-5.277,15.865-13.526,17.705
			c-4.144,0.924-8.147,0.512-11.983-1.332c-0.42-0.201-0.747-0.211-1.185-0.027c-5.932,2.482-11.864,2.477-17.764-0.105
			c-0.544-0.238-0.932-0.16-1.429,0.08C17.135,73.92,7.03,68.949,5.204,59.633c-1.275-6.504,2.363-13.062,8.701-15.643
			c0.485-0.197,0.757-0.421,0.928-0.964c2.822-8.979,8.816-14.437,18.112-16.164C34.018,26.663,35.116,26.591,36.223,26.593z
			 M50.71,37.519c-0.036-0.104-0.048-0.164-0.077-0.214c-0.047-0.078-0.103-0.151-0.162-0.22c-4.673-5.374-10.514-7.755-17.57-6.472
			c-6.668,1.213-11.205,5.224-13.881,11.395c-0.428,0.987-0.402,0.982,0.632,1.028c0.666,0.029,1.339,0.066,1.993,0.184
			c3.73,0.665,6.644,2.566,8.614,5.827c0.606,1.004,0.328,2.099-0.576,2.617c-0.947,0.541-1.941,0.258-2.562-0.76
			c-0.382-0.627-0.812-1.208-1.348-1.711c-2.269-2.124-4.939-2.66-7.992-2.41c-6.237,0.513-11.838,8.061-7.843,15.297
			c3.093,5.6,10.201,7.178,15.679,3.508c0.509-0.342,0.874-0.424,1.442-0.111c5.897,3.248,11.857,3.32,17.841,0.24
			c0.572-0.295,0.979-0.309,1.549,0.051c2.451,1.551,5.147,2.219,8.055,2.17c7.141-0.121,13.25-5.943,13.531-12.951
			c0.252-6.278-4.075-12.02-10.251-13.599c-3.035-0.776-6.016-0.804-8.844,0.753c-1.188,0.653-2.083,1.551-2.22,3.021
			c-0.1,1.069-0.9,1.751-1.877,1.693c-1.01-0.061-1.78-0.911-1.727-1.977c0.036-0.694,0.152-1.381,0.427-2.038
			c0.955-2.285,2.766-3.635,4.962-4.552C49.223,37.989,49.974,37.773,50.71,37.519z"/>
		<path fill-rule="evenodd" clip-rule="evenodd" fill="#FFFFFF" d="M80.45,39.447c0.021,1.984-0.254,3.594-0.739,5.169
			c-0.364,1.184-1.299,1.767-2.332,1.481c-1.056-0.291-1.535-1.319-1.151-2.564c2.312-7.506-2.575-13.076-7.423-14.431
			c-3.567-0.996-6.846-0.342-9.812,1.868c-0.519,0.387-1.024,0.79-1.72,0.685c-0.787-0.119-1.348-0.552-1.563-1.337
			c-0.228-0.828,0.087-1.486,0.727-2.011c2.068-1.694,4.439-2.728,7.07-3.127C72.416,23.827,80.451,30.76,80.45,39.447z"/>
		<path fill-rule="evenodd" clip-rule="evenodd" fill="#FFFFFF" d="M34.154,88.479c-2.736,0.006-4.644-2.467-3.958-5.168
			c0.581-2.289,2.157-3.965,3.597-5.723c0.273-0.334,0.533-0.188,0.752,0.072c1.329,1.578,2.708,3.135,3.479,5.082
			C39.133,85.549,37.137,88.473,34.154,88.479z"/>
		<path fill-rule="evenodd" clip-rule="evenodd" fill="#FFFFFF" d="M46.549,88.479c-2.813,0.01-4.722-2.553-3.938-5.324
			c0.622-2.201,2.138-3.844,3.545-5.551c0.271-0.33,0.523-0.227,0.751,0.045c1.368,1.623,2.805,3.215,3.546,5.246
			C51.453,85.637,49.445,88.469,46.549,88.479z"/>
		<path fill-rule="evenodd" clip-rule="evenodd" fill="#FFFFFF" d="M91.359,27.618c-0.064,0.888-0.547,1.689-1.557,2.069
			c-1.839,0.692-3.686,1.37-5.549,1.993c-1.388,0.465-2.705-0.219-3.138-1.534c-0.411-1.253,0.236-2.549,1.571-3.048
			c1.783-0.667,3.571-1.326,5.374-1.941C89.738,24.585,91.38,25.746,91.359,27.618z"/>
		<path fill-rule="evenodd" clip-rule="evenodd" fill="#FFFFFF" d="M51.549,14.177c0.738-0.02,1.363,0.317,1.84,0.922
			c1.202,1.527,2.414,3.048,3.577,4.604c0.845,1.132,0.635,2.622-0.409,3.422c-1.076,0.823-2.523,0.675-3.416-0.43
			c-1.239-1.535-2.439-3.104-3.626-4.682c-0.601-0.799-0.643-1.703-0.176-2.577C49.787,14.598,50.518,14.152,51.549,14.177z"/>
		<path fill-rule="evenodd" clip-rule="evenodd" fill="#FFFFFF" d="M91.056,52.871c-0.018,1.803-1.896,3.006-3.482,2.115
			c-1.845-1.037-3.624-2.197-5.372-3.393c-1.022-0.699-1.205-2.154-0.559-3.18c0.652-1.036,2.014-1.505,3.097-0.879
			c1.858,1.074,3.663,2.246,5.453,3.434C90.827,51.389,91.097,52.088,91.056,52.871z"/>
		<path fill-rule="evenodd" clip-rule="evenodd" fill="#FFFFFF" d="M81.023,17.476c0.037,0.494-0.162,0.958-0.46,1.396
			c-1.023,1.506-2.03,3.022-3.064,4.521c-0.894,1.296-2.317,1.646-3.476,0.886c-1.206-0.792-1.456-2.272-0.574-3.599
			c1.041-1.566,2.094-3.126,3.174-4.666c0.648-0.927,1.715-1.258,2.729-0.926C80.407,15.433,81.024,16.296,81.023,17.476z"/>
		<path fill-rule="evenodd" clip-rule="evenodd" fill="#FFFFFF" d="M81.594,62.639c-0.051,1.225-0.715,2.074-1.732,2.373
			c-0.992,0.291-2.129-0.033-2.648-0.928c-1.067-1.836-2.096-3.697-3.045-5.596c-0.564-1.127-0.032-2.484,1.033-3.064
			c1.143-0.619,2.533-0.33,3.198,0.803c1.045,1.777,1.994,3.611,2.982,5.424C81.578,62.01,81.583,62.406,81.594,62.639z"/>
		<path fill-rule="evenodd" clip-rule="evenodd" fill="#FFFFFF" d="M89.505,42.508c-0.972,0-1.943,0.019-2.915-0.005
			c-1.346-0.032-2.346-1.08-2.327-2.4c0.02-1.352,0.999-2.364,2.347-2.389c1.881-0.034,3.762-0.063,5.645-0.063
			c1.641-0.002,2.693,0.963,2.697,2.425c0.003,1.441-1.078,2.401-2.714,2.406c-0.911,0.002-1.821,0-2.732,0
			C89.505,42.491,89.505,42.5,89.505,42.508z"/>
		<path fill-rule="evenodd" clip-rule="evenodd" fill="#FFFFFF" d="M62.727,15.423c0-0.972-0.014-1.943,0.004-2.914
			c0.025-1.324,0.99-2.299,2.291-2.342c1.347-0.044,2.429,0.889,2.493,2.235c0.095,2,0.157,4.002,0.184,6.004
			c0.019,1.419-1.019,2.442-2.382,2.447c-1.319,0.005-2.324-0.965-2.404-2.34c-0.061-1.029-0.103-2.06-0.152-3.09
			C62.749,15.423,62.738,15.423,62.727,15.423z"/>
	</g>
</g>
</svg>
