<?xml version="1.0" encoding="utf-8"?>
<!-- Generator: Adobe Illustrator 16.0.0, SVG Export Plug-In . SVG Version: 6.00 Build 0)  -->
<!DOCTYPE svg PUBLIC "-//W3C//DTD SVG 1.1//EN" "http://www.w3.org/Graphics/SVG/1.1/DTD/svg11.dtd">
<svg version="1.1" xmlns="http://www.w3.org/2000/svg" xmlns:xlink="http://www.w3.org/1999/xlink" x="0px" y="0px" width="100px"
	 height="100px" viewBox="0 0 100 100" enable-background="new 0 0 100 100" xml:space="preserve">
<g id="Layer_1">
</g>
<g id="Layer_2">
	<rect x="120.5" y="-12.529" fill-rule="evenodd" clip-rule="evenodd" fill="#1A1A1A" width="112" height="116.75"/>
	<g>
		<path fill-rule="evenodd" clip-rule="evenodd" fill="#FFFFFF" d="M71.625,63.858c-2.828,0.074-5.458-0.705-7.999-1.854
			c-1.478-0.668-2.946-1.357-4.415-2.047c-1.354-0.635-1.895-1.93-1.357-3.215c0.528-1.264,1.867-1.828,3.246-1.273
			c1.241,0.498,2.477,1.031,3.65,1.668c4.697,2.555,9.455,2.264,14.201,0.271c6.611-2.775,10.67-7.832,11.518-14.859
			c0.802-6.638-1.703-12.281-7.154-16.404c-2.629-1.987-5.4-3.654-8.896-3.35c-2.462,0.214-4.81,0.789-6.803,2.358
			c-1.091,0.859-1.83,1.896-1.896,3.379c-0.058,1.295-1.209,2.255-2.456,2.227c-1.308-0.029-2.384-1.064-2.384-2.44
			c0.002-2.843,1.359-5.032,3.466-6.824c0.935-0.796,1.95-1.5,3.099-1.903c1.115-0.392,0.941-0.827,0.377-1.598
			c-3.143-4.284-7.18-7.376-12.189-9.141c-6.324-2.229-12.376-1.697-18.536,1.122c-6.354,2.909-10.223,7.732-12.804,13.929
			c-0.351,0.841-0.341,1.116,0.757,1.125c6.061,0.048,10.91,2.484,14.314,7.584c0.427,0.639,0.823,1.324,0.676,2.154
			c-0.198,1.113-0.842,1.863-1.951,2.082c-1.166,0.229-2.042-0.266-2.651-1.285c-1.695-2.839-4.209-4.582-7.391-5.344
			c-4.72-1.129-12.989,0.806-16.095,7.094c-3.195,6.467-0.84,13.973,3.253,17.504c0.773,0.666,1.62,1.238,2.577,1.6
			c2.995,1.131,5.97,2.232,9.303,1.5c1.406-0.309,2.709-0.822,4.033-1.32c1.1-0.416,2.175-0.906,3.292-1.266
			c1.348-0.434,2.602,0.219,3.053,1.484c0.451,1.264-0.108,2.545-1.428,3.07c-3.383,1.354-6.688,2.963-10.437,3.119
			c-2.658,0.113-5.187-0.266-7.672-1.293c-1.919-0.793-3.83-1.523-5.484-2.826c-6.064-4.779-9.613-15.516-4.458-24.411
			c2.246-3.877,5.246-6.674,9.528-8.018c0.75-0.235,1.084-0.617,1.292-1.369c2.115-7.672,6.304-13.996,13.178-18.045
			C42.209,1.021,54.378,0.201,66.02,9.09c2.806,2.143,5.072,4.793,6.9,7.813c0.295,0.487,0.525,0.98,1.258,0.951
			c5.736-0.22,10.283,2.437,14.218,6.22c11.38,10.94,8.665,29.046-5.118,36.697C79.693,62.759,76.011,63.704,71.625,63.858z"/>
		<path fill-rule="evenodd" clip-rule="evenodd" fill="#FFFFFF" d="M46.694,73.472c0.295-3.846,0.558-7.693,0.911-11.533
			c0.082-0.885-0.143-1.102-0.994-1.141c-2.061-0.098-4.116-0.305-6.33-0.479c3.672-6.357,7.272-12.592,10.872-18.826
			c0.052,0.024,0.104,0.05,0.154,0.074c-0.506,4.515-0.969,9.033-1.549,13.539c-0.126,0.973,0.156,1.199,1.006,1.246
			c1.094,0.061,2.183,0.275,3.274,0.281c1.06,0.006,0.976,0.377,0.603,1.129c-2.301,4.654-4.569,9.324-6.85,13.99
			c-0.295,0.604-0.593,1.205-0.89,1.809C46.833,73.532,46.764,73.501,46.694,73.472z"/>
		<path fill-rule="evenodd" clip-rule="evenodd" fill="#FFFFFF" d="M11.137,93.974c0.018-0.803,0.371-1.967,1.025-3.01
			c2.432-3.883,4.872-7.762,7.355-11.609c0.801-1.242,1.851-2.266,3.315-2.738c1.546-0.5,2.662,0.174,2.926,1.768
			c0.26,1.57-0.231,2.99-1.034,4.279c-2.4,3.855-4.843,7.682-7.296,11.504c-0.688,1.072-1.605,1.938-2.78,2.48
			C12.621,97.583,11.146,96.642,11.137,93.974z"/>
		<path fill-rule="evenodd" clip-rule="evenodd" fill="#FFFFFF" d="M57.234,79.54c-0.045,0.98-0.471,2.154-1.151,3.232
			c-2.337,3.703-4.681,7.402-7.033,11.094c-0.822,1.289-1.849,2.373-3.324,2.912c-1.8,0.66-3.069-0.207-3.159-2.119
			c-0.065-1.389,0.356-2.652,1.076-3.803c2.408-3.848,4.839-7.684,7.288-11.508c0.641-1,1.486-1.826,2.541-2.402
			C55.647,75.755,57.297,76.761,57.234,79.54z"/>
		<path fill-rule="evenodd" clip-rule="evenodd" fill="#FFFFFF" d="M42.603,79.153c-0.018,1.43-0.569,2.686-1.31,3.863
			c-2.268,3.602-4.548,7.197-6.838,10.783c-0.82,1.287-1.835,2.377-3.298,2.949c-1.841,0.721-3.16-0.16-3.23-2.129
			c-0.05-1.391,0.371-2.65,1.091-3.801c2.389-3.813,4.796-7.615,7.225-11.402c0.685-1.07,1.574-1.965,2.73-2.543
			C41.066,75.825,42.622,76.806,42.603,79.153z"/>
		<path fill-rule="evenodd" clip-rule="evenodd" fill="#FFFFFF" d="M71.869,79.784c-0.026,0.732-0.439,1.871-1.096,2.912
			c-2.398,3.809-4.809,7.609-7.235,11.398c-0.757,1.184-1.751,2.131-3.089,2.646c-1.855,0.717-3.162-0.139-3.242-2.113
			c-0.059-1.434,0.42-2.719,1.163-3.904c2.372-3.775,4.762-7.539,7.16-11.299c0.663-1.041,1.515-1.914,2.614-2.496
			C70.346,75.763,71.939,76.769,71.869,79.784z"/>
	</g>
</g>
</svg>
