<?xml version="1.0" encoding="utf-8"?>
<!-- Generator: Adobe Illustrator 16.0.0, SVG Export Plug-In . SVG Version: 6.00 Build 0)  -->
<!DOCTYPE svg PUBLIC "-//W3C//DTD SVG 1.1//EN" "http://www.w3.org/Graphics/SVG/1.1/DTD/svg11.dtd">
<svg version="1.1" xmlns="http://www.w3.org/2000/svg" xmlns:xlink="http://www.w3.org/1999/xlink" x="0px" y="0px" width="100px"
	 height="100px" viewBox="0 0 100 100" enable-background="new 0 0 100 100" xml:space="preserve">
<g id="Layer_1">
</g>
<g id="Layer_2">
	<rect x="120.5" y="-12.529" fill-rule="evenodd" clip-rule="evenodd" fill="#1A1A1A" width="112" height="116.75"/>
	<g>
		<path fill-rule="evenodd" clip-rule="evenodd" fill="#FFFFFF" d="M71.589,75c-3.161,0.075-5.653-0.602-8.052-1.665
			c-1.632-0.723-3.246-1.481-4.861-2.239c-1.309-0.613-1.845-1.865-1.359-3.112c0.501-1.291,1.846-1.928,3.193-1.377
			c1.763,0.721,3.483,1.547,5.217,2.337c4.546,2.07,8.955,1.208,13.312-0.625c7.549-3.178,11.582-11.461,11.07-17.676
			c-0.715-8.675-6.986-15.022-13.806-16.526c-3.446-0.76-6.775,0.22-9.574,2.522c-0.874,0.72-1.396,1.664-1.506,2.826
			c-0.151,1.578-1.214,2.554-2.605,2.441c-1.414-0.113-2.392-1.372-2.253-2.945c0.252-2.867,1.762-5.003,3.974-6.711
			c0.871-0.674,1.824-1.233,2.848-1.625c0.761-0.292,0.772-0.571,0.32-1.203c-3.959-5.541-9.261-9.031-15.921-10.397
			c-5.241-1.075-10.115-0.058-15.014,2.12c-6.397,2.844-10.206,7.751-12.798,13.935c-0.346,0.826-0.377,1.102,0.763,1.112
			c6.256,0.054,11.214,2.604,14.56,7.995c0.739,1.191,0.579,2.448-0.324,3.218c-0.892,0.76-1.889,0.889-2.937,0.302
			c-0.441-0.247-0.694-0.657-0.964-1.072c-2.57-3.962-6.253-5.775-10.937-5.527c-3.525,0.187-6.982,1.01-9.53,3.497
			c-6.728,6.57-5.492,15.915,0.184,21.271c0.869,0.819,1.883,1.43,2.994,1.834c2.892,1.055,5.764,2.071,8.972,1.372
			c1.531-0.333,2.931-0.916,4.361-1.472c0.982-0.382,1.957-0.789,2.96-1.109c1.358-0.433,2.587,0.177,3.064,1.445
			c0.473,1.26-0.063,2.57-1.374,3.098c-3.493,1.407-6.93,2.987-10.794,3.19c-1.242,0.065-2.426-0.098-3.617-0.335
			c-3.941-0.788-7.601-2.136-10.543-5.05c-5.345-5.296-7.976-15.343-2.855-23.701c2.204-3.599,5.085-6.187,9.091-7.47
			c0.873-0.281,1.263-0.74,1.51-1.617c2.314-8.248,7.013-14.861,14.641-18.768c10.653-5.453,22.88-5.521,34.148,4.337
			c2.122,1.857,3.86,4.06,5.308,6.483c0.274,0.459,0.5,0.92,1.166,0.894c5.836-0.237,10.437,2.479,14.409,6.346
			c11.059,10.764,8.637,28.644-4.975,36.417C79.352,73.885,75.344,74.941,71.589,75z"/>
		<path fill-rule="evenodd" clip-rule="evenodd" fill="#FFFFFF" d="M39.779,71.477c3.659-6.336,7.242-12.544,10.827-18.752
			c0.062,0.014,0.124,0.026,0.187,0.04c-0.193,1.778-0.385,3.556-0.583,5.334c-0.305,2.745-0.572,5.495-0.947,8.231
			c-0.124,0.905,0.197,1.135,0.989,1.183c1.135,0.068,2.264,0.263,3.397,0.286c0.898,0.018,0.894,0.293,0.55,0.991
			c-2.631,5.346-5.231,10.706-8.016,16.042c0.19-2.504,0.378-5.008,0.571-7.513c0.109-1.417,0.182-2.84,0.361-4.248
			c0.112-0.88-0.201-1.082-1.031-1.12C44.029,71.855,41.979,71.65,39.779,71.477z"/>
	</g>
</g>
</svg>
