<?xml version="1.0" encoding="utf-8"?>
<!-- Generator: Adobe Illustrator 16.0.0, SVG Export Plug-In . SVG Version: 6.00 Build 0)  -->
<!DOCTYPE svg PUBLIC "-//W3C//DTD SVG 1.1//EN" "http://www.w3.org/Graphics/SVG/1.1/DTD/svg11.dtd">
<svg version="1.1" xmlns="http://www.w3.org/2000/svg" xmlns:xlink="http://www.w3.org/1999/xlink" x="0px" y="0px" width="140px"
	 height="85px" viewBox="0 0 140 85" enable-background="new 0 0 140 85" xml:space="preserve">
<g id="Layer_2">
	<rect fill-rule="evenodd" clip-rule="evenodd" width="140" height="85"/>
</g>
<g id="Layer_1">
	<g>
		<path fill-rule="evenodd" clip-rule="evenodd" fill="#1C2256" d="M69.663,70.788c-23.131,0-46.261-0.019-69.391,0.041
			c-1.468,0.003-1.769-0.296-1.764-1.763c0.064-17.717,0.064-35.435,0-53.151c-0.005-1.468,0.296-1.764,1.764-1.763
			c46.424,0.049,92.849,0.049,139.272,0c1.468-0.001,1.77,0.294,1.765,1.763c-0.063,17.716-0.063,35.435,0,53.151
			c0.005,1.467-0.296,1.766-1.765,1.763C116.25,70.77,92.956,70.788,69.663,70.788z M107.801,40.126
			c0,4.592,0.005,9.183-0.004,13.775c-0.002,1.108-0.077,2.203,1.545,2.183c4.343-0.056,8.706,0.149,13.026-0.195
			c3.426-0.272,6.354-1.828,7.23-5.612c0.896-3.859,0.339-7.407-3.006-9.935c-1.217-0.918-1.153-1.266-0.135-2.282
			c2.493-2.49,3.044-5.587,1.898-8.859c-1.108-3.168-3.777-4.329-6.877-4.751c-3.755-0.513-7.531-0.226-11.297-0.333
			c-1.796-0.052-2.452,0.666-2.413,2.482C107.865,31.106,107.801,35.617,107.801,40.126z M12.933,40.122
			c0,4.429,0.003,8.857-0.003,13.286c-0.002,1.398-0.284,2.719,1.991,2.749c2.266,0.03,2.018-1.243,2.015-2.66
			c-0.012-7.872-0.02-15.747,0.021-23.619c0.003-0.667-0.556-1.887,0.828-1.862c3.019,0.054,6.056-0.394,9.055,0.347
			c2.5,0.618,3.393,2.45,3.478,4.735c0.092,2.469-1.365,4.163-3.773,4.757c-2.025,0.499-4.083,0.26-6.124,0.257
			c-1.236-0.002-1.778,0.346-1.731,1.68c0.041,1.142,0.174,1.905,1.577,1.862c2.212-0.066,4.441,0.123,6.639-0.076
			c4.978-0.451,7.661-3.733,7.457-8.873c-0.204-5.169-3.074-8.119-8.132-8.218c-3.771-0.073-7.548,0.077-11.316-0.058
			c-1.749-0.063-2.031,0.661-2.007,2.161C12.978,31.1,12.932,35.611,12.933,40.122z M60.87,50.172
			c-4.246,2.142-5.199,2.43-7.045,2.13c-4.568-0.74-7.547-4.546-7.092-9.057c0.424-4.207,4.242-7.54,8.406-7.339
			c4.287,0.207,7.82,3.999,7.868,8.505c0.037,3.357,0.072,6.718-0.02,10.074c-0.045,1.639,0.892,1.593,2.038,1.615
			c1.214,0.025,2.013-0.086,1.964-1.668c-0.103-3.356-0.021-6.718-0.033-10.076c-0.027-7.295-5.816-12.813-12.927-12.334
			c-7.1,0.479-12.104,6.728-11.186,13.972c0.848,6.688,7.397,11.262,14.396,10.051C61.134,55.37,61.839,54.229,60.87,50.172z
			 M74.373,34.542c0.365-2.775-1.451-2.123-2.823-2.199c-1.882-0.104-1.293,1.321-1.299,2.226
			c-0.041,6.473,0.009,12.947-0.047,19.419c-0.012,1.475,0.228,2.182,1.983,2.159c1.778-0.021,2.234-0.618,2.187-2.296
			c-0.104-3.767-0.03-7.538-0.033-11.307c-0.002-2.447,0.894-4.503,2.847-5.974c2.522-1.898,5.259-1.908,8.121-0.75
			c2.777,1.123,2.892,3.371,2.832,5.875c-0.098,4.095,0.03,8.195-0.057,12.291c-0.03,1.525,0.291,2.222,2.01,2.145
			c1.515-0.066,2.431-0.171,2.383-2.09c-0.121-4.831-0.011-9.668-0.053-14.502c-0.031-3.76-1.627-6.036-5.223-7.089
			C82.764,31.15,78.49,31.6,74.373,34.542z M36.765,40.021c0,4.751,0.039,9.503-0.026,14.254c-0.018,1.326,0.286,1.922,1.75,1.844
			c1.195-0.064,1.944-0.069,1.932-1.665c-0.074-9.502-0.062-19.005-0.009-28.508c0.008-1.438-0.54-1.807-1.871-1.833
			c-1.441-0.029-1.815,0.557-1.799,1.9C36.8,30.681,36.765,35.351,36.765,40.021z M100.04,41.206
			c-1.97-0.009-3.432,1.409-3.448,3.34c-0.014,1.86,1.545,3.46,3.397,3.481c1.838,0.021,3.409-1.555,3.425-3.437
			C103.434,42.637,102.014,41.215,100.04,41.206z M94.553,63.764c0.37,1.075-0.812,3.177,0.665,3.265
			c1.234,0.074,0.501-2.052,0.66-3.188c0.139-0.961,0.268-1.858,1.432-1.939c1.221-0.085,1.376,0.841,1.573,1.778
			c0.248,1.175-0.747,3.207,0.689,3.327c1.048,0.087,0.392-2.096,0.606-3.246c0.176-0.937,0.369-1.831,1.546-1.872
			c1.302-0.046,1.233,0.971,1.424,1.86c0.246,1.152-0.807,3.122,0.81,3.235c0.843,0.06,0.343-2.261,0.442-3.502
			c0.127-1.543-0.343-3.054-2.12-2.931c-1.743,0.122-3.426,0.186-5.169-0.023C94.792,60.254,93.991,61.499,94.553,63.764z
			 M119.676,63.013c-0.009,0-0.017,0-0.025,0c0-1.227,0.011-2.452-0.007-3.677c-0.005-0.309-0.005-0.688-0.422-0.777
			c-0.541-0.116-0.72,0.257-0.771,0.683c-0.106,0.895,0.036,1.665-1.497,1.365c-2.434-0.477-4.162,0.992-4.267,3.164
			c-0.099,2.041,1.382,3.602,3.442,3.626c3.547,0.042,3.547,0.042,3.547-3.401C119.676,63.667,119.676,63.34,119.676,63.013z
			 M129.95,63.931c0.001-3.465,0.001-3.465-3.58-3.473c-1.827-0.004-3.824,1.837-3.789,3.496c0.037,1.725,1.933,3.441,3.805,3.443
			C129.95,67.401,129.95,67.401,129.95,63.931z M106.528,64.549c1.84,0,3.118,0.007,4.396-0.002
			c0.923-0.007,1.386-0.422,1.109-1.387c-0.451-1.566-1.469-2.548-3.112-2.682c-1.636-0.134-2.894,0.594-3.492,2.127
			c-0.627,1.602-0.292,3.106,1.125,4.15c1.301,0.959,2.738,0.933,4.108,0.05c0.404-0.26,0.874-0.651,0.527-1.167
			c-0.354-0.524-0.877-0.198-1.293,0.046C108.739,66.368,107.768,66.261,106.528,64.549z M122.21,64.029
			c-0.411-1.102,0.541-3.211-0.681-3.173c-1.649,0.052-0.711,2.098-0.776,3.243c-0.059,1.024-0.593,2.982,0.604,2.947
			C122.841,67.002,121.789,65.068,122.21,64.029z"/>
		<path fill-rule="evenodd" clip-rule="evenodd" fill="#4FB7E4" d="M107.801,40.126c0-4.51,0.064-9.021-0.031-13.528
			c-0.039-1.816,0.617-2.534,2.413-2.482c3.766,0.107,7.542-0.179,11.297,0.333c3.1,0.422,5.769,1.583,6.877,4.751
			c1.146,3.272,0.595,6.369-1.898,8.859c-1.019,1.016-1.082,1.363,0.135,2.282c3.345,2.528,3.901,6.076,3.006,9.935
			c-0.876,3.784-3.805,5.34-7.23,5.612c-4.32,0.345-8.684,0.14-13.026,0.195c-1.622,0.021-1.547-1.074-1.545-2.183
			C107.806,49.31,107.801,44.719,107.801,40.126z M112.233,46.796c0,5.79,0,5.781,5.855,5.787c1.395,0.001,2.769-0.025,4.099-0.535
			c3.271-1.254,4.483-5.339,2.322-8.103c-1.657-2.122-4.033-2.603-6.571-2.626C112.233,41.267,112.233,41.259,112.233,46.796z
			 M112.239,32.616c0,1.306,0.001,2.611-0.002,3.916c0,0.689,0.047,1.363,0.976,1.347c2.515-0.043,5.066,0.353,7.524-0.483
			c2.359-0.802,3.753-3.008,3.531-5.504c-0.235-2.638-1.32-3.731-4.238-4.168c-0.885-0.132-1.788-0.166-2.682-0.174
			C112.233,27.501,112.233,27.509,112.239,32.616z"/>
		<path fill-rule="evenodd" clip-rule="evenodd" fill="#F9F9FB" d="M12.932,40.122c0-4.511,0.045-9.022-0.026-13.532
			c-0.024-1.5,0.258-2.223,2.007-2.161c3.768,0.135,7.545-0.016,11.316,0.058c5.058,0.099,7.928,3.049,8.132,8.218
			c0.204,5.14-2.479,8.421-7.457,8.873c-2.197,0.199-4.426,0.01-6.639,0.076c-1.403,0.042-1.536-0.721-1.577-1.862
			c-0.047-1.333,0.495-1.682,1.731-1.68c2.041,0.003,4.099,0.241,6.124-0.257c2.408-0.595,3.866-2.289,3.773-4.757
			c-0.085-2.285-0.979-4.117-3.478-4.735c-2.999-0.74-6.036-0.293-9.055-0.347c-1.384-0.025-0.825,1.194-0.828,1.862
			c-0.042,7.873-0.034,15.747-0.021,23.619c0.002,1.417,0.25,2.69-2.015,2.66c-2.275-0.03-1.993-1.351-1.991-2.749
			C12.936,48.979,12.933,44.551,12.932,40.122z"/>
		<path fill-rule="evenodd" clip-rule="evenodd" fill="#F9F9FB" d="M60.87,50.172c0.97,4.058,0.265,5.198-3.63,5.873
			c-6.999,1.211-13.548-3.362-14.396-10.051c-0.918-7.244,4.085-13.493,11.186-13.972c7.111-0.479,12.9,5.039,12.927,12.334
			c0.013,3.358-0.07,6.72,0.033,10.076c0.048,1.582-0.75,1.693-1.964,1.668c-1.146-0.022-2.083,0.023-2.038-1.615
			c0.092-3.356,0.056-6.717,0.02-10.074c-0.048-4.506-3.582-8.298-7.868-8.505c-4.164-0.201-7.982,3.132-8.406,7.339
			c-0.456,4.511,2.523,8.316,7.092,9.057C55.671,52.602,56.624,52.313,60.87,50.172z"/>
		<path fill-rule="evenodd" clip-rule="evenodd" fill="#F9F9FB" d="M74.373,34.542C78.49,31.6,82.764,31.15,87.2,32.449
			c3.596,1.053,5.191,3.329,5.223,7.089c0.042,4.834-0.068,9.671,0.053,14.502c0.048,1.919-0.868,2.023-2.383,2.09
			c-1.719,0.077-2.04-0.619-2.01-2.145c0.087-4.096-0.041-8.195,0.057-12.291c0.06-2.504-0.055-4.753-2.832-5.875
			c-2.862-1.158-5.599-1.148-8.121,0.75c-1.953,1.471-2.849,3.527-2.847,5.974c0.003,3.769-0.071,7.541,0.033,11.307
			c0.048,1.678-0.408,2.275-2.187,2.296c-1.755,0.022-1.995-0.685-1.983-2.159c0.056-6.472,0.006-12.946,0.047-19.419
			c0.006-0.905-0.583-2.331,1.299-2.226C72.922,32.419,74.738,31.767,74.373,34.542z"/>
		<path fill-rule="evenodd" clip-rule="evenodd" fill="#F9F9FB" d="M36.765,40.021c0-4.67,0.035-9.341-0.023-14.009
			c-0.017-1.343,0.358-1.929,1.799-1.9c1.331,0.026,1.878,0.395,1.871,1.833c-0.053,9.503-0.065,19.006,0.009,28.508
			c0.012,1.596-0.737,1.601-1.932,1.665c-1.464,0.078-1.767-0.518-1.75-1.844C36.804,49.524,36.765,44.772,36.765,40.021z"/>
		<path fill-rule="evenodd" clip-rule="evenodd" fill="#4FB7E4" d="M100.04,41.206c1.974,0.009,3.394,1.431,3.374,3.385
			c-0.016,1.882-1.587,3.458-3.425,3.437c-1.853-0.021-3.411-1.621-3.397-3.481C96.608,42.615,98.07,41.197,100.04,41.206z"/>
		<path fill-rule="evenodd" clip-rule="evenodd" fill="#4FB7E4" d="M121.552,58.537c0.478,0.003,0.82,0.346,0.815,0.817
			c-0.004,0.455-0.384,0.836-0.827,0.831c-0.447-0.005-0.825-0.393-0.821-0.842C120.723,58.878,121.075,58.535,121.552,58.537z"/>
		<path fill-rule="evenodd" clip-rule="evenodd" fill="#4FB7E4" d="M94.553,63.764c-0.562-2.265,0.239-3.51,2.559-3.236
			c1.743,0.209,3.426,0.146,5.169,0.023c1.777-0.123,2.247,1.388,2.12,2.931c-0.1,1.241,0.4,3.562-0.442,3.502
			c-1.616-0.113-0.563-2.083-0.81-3.235c-0.19-0.89-0.122-1.906-1.424-1.86c-1.177,0.041-1.37,0.936-1.546,1.872
			c-0.215,1.15,0.441,3.333-0.606,3.246c-1.437-0.12-0.441-2.152-0.689-3.327c-0.197-0.938-0.353-1.863-1.573-1.778
			c-1.164,0.081-1.293,0.979-1.432,1.939c-0.159,1.137,0.574,3.263-0.66,3.188C93.741,66.94,94.923,64.839,94.553,63.764z"/>
		<path fill-rule="evenodd" clip-rule="evenodd" fill="#4FB7E4" d="M119.676,63.013c0,0.327,0,0.654,0,0.982
			c0,3.443,0,3.443-3.547,3.401c-2.061-0.024-3.541-1.585-3.442-3.626c0.104-2.172,1.833-3.641,4.267-3.164
			c1.533,0.3,1.391-0.471,1.497-1.365c0.052-0.426,0.23-0.799,0.771-0.683c0.417,0.09,0.417,0.469,0.422,0.777
			c0.018,1.225,0.007,2.45,0.007,3.677C119.659,63.013,119.667,63.013,119.676,63.013z M116.083,66.133
			c1.134-0.142,2.021-0.665,2.13-1.917c0.116-1.339-0.572-2.217-1.926-2.326c-1.246-0.104-2.019,0.595-2.139,1.837
			C114.018,65.086,114.745,65.854,116.083,66.133z"/>
		<path fill-rule="evenodd" clip-rule="evenodd" fill="#4FB7E4" d="M129.95,63.931c0,3.471,0,3.471-3.564,3.467
			c-1.872-0.002-3.768-1.719-3.805-3.443c-0.035-1.659,1.962-3.5,3.789-3.496C129.951,60.466,129.951,60.466,129.95,63.931z
			 M126.257,61.851c-1.31,0.123-1.978,0.906-1.956,2.105c0.021,1.322,0.791,2.175,2.182,2.073c1.199-0.09,1.972-0.83,1.952-2.089
			C128.412,62.56,127.563,61.92,126.257,61.851z"/>
		<path fill-rule="evenodd" clip-rule="evenodd" fill="#4FB7E4" d="M106.528,64.549c1.239,1.712,2.211,1.819,3.368,1.136
			c0.416-0.244,0.939-0.57,1.293-0.046c0.347,0.516-0.123,0.907-0.527,1.167c-1.37,0.883-2.808,0.909-4.108-0.05
			c-1.417-1.044-1.752-2.549-1.125-4.15c0.599-1.533,1.856-2.261,3.492-2.127c1.644,0.134,2.661,1.115,3.112,2.682
			c0.276,0.965-0.187,1.38-1.109,1.387C109.646,64.556,108.368,64.549,106.528,64.549z M106.717,63.351
			c1.354-0.188,2.465,0.456,3.392-0.431c0.267-0.256-0.219-0.744-0.606-0.873C108.416,61.689,107.471,61.775,106.717,63.351z"/>
		<path fill-rule="evenodd" clip-rule="evenodd" fill="#4FB7E4" d="M122.21,64.029c-0.421,1.039,0.631,2.973-0.854,3.018
			c-1.196,0.035-0.662-1.923-0.604-2.947c0.065-1.146-0.873-3.191,0.776-3.243C122.751,60.818,121.799,62.928,122.21,64.029z"/>
		<path fill-rule="evenodd" clip-rule="evenodd" fill="#1C2256" d="M112.233,46.796c0-5.537,0-5.529,5.705-5.477
			c2.538,0.023,4.914,0.504,6.571,2.626c2.161,2.764,0.948,6.849-2.322,8.103c-1.33,0.51-2.704,0.536-4.099,0.535
			C112.233,52.577,112.233,52.586,112.233,46.796z"/>
		<path fill-rule="evenodd" clip-rule="evenodd" fill="#1C2256" d="M112.236,32.616c-0.003-5.107-0.003-5.115,5.112-5.066
			c0.894,0.008,1.797,0.042,2.682,0.174c2.918,0.437,4.003,1.53,4.238,4.168c0.222,2.496-1.172,4.703-3.531,5.504
			c-2.458,0.836-5.01,0.44-7.524,0.483c-0.929,0.016-0.976-0.658-0.976-1.347C112.24,35.228,112.239,33.922,112.236,32.616z"/>
		<path fill-rule="evenodd" clip-rule="evenodd" fill="#1C2256" d="M116.083,66.133c-1.338-0.278-2.065-1.047-1.935-2.406
			c0.12-1.242,0.893-1.94,2.139-1.837c1.354,0.109,2.042,0.987,1.926,2.326C118.104,65.468,117.217,65.991,116.083,66.133z"/>
		<path fill-rule="evenodd" clip-rule="evenodd" fill="#1C2256" d="M126.257,61.851c1.307,0.069,2.155,0.709,2.178,2.09
			c0.02,1.259-0.753,1.999-1.952,2.089c-1.391,0.102-2.16-0.751-2.182-2.073C124.279,62.757,124.947,61.974,126.257,61.851z"/>
		<path fill-rule="evenodd" clip-rule="evenodd" fill="#1C2256" d="M106.717,63.351c0.754-1.575,1.699-1.661,2.785-1.304
			c0.388,0.129,0.873,0.617,0.606,0.873C109.182,63.807,108.071,63.162,106.717,63.351z"/>
	</g>
</g>
</svg>
