<?xml version="1.0" encoding="utf-8"?>
<!-- Generator: Adobe Illustrator 16.0.0, SVG Export Plug-In . SVG Version: 6.00 Build 0)  -->
<!DOCTYPE svg PUBLIC "-//W3C//DTD SVG 1.1//EN" "http://www.w3.org/Graphics/SVG/1.1/DTD/svg11.dtd">
<svg version="1.1" xmlns="http://www.w3.org/2000/svg" xmlns:xlink="http://www.w3.org/1999/xlink" x="0px" y="0px" width="30px"
	 height="30px" viewBox="0 0 30 30" enable-background="new 0 0 30 30" xml:space="preserve">
<g id="Layer_2">
</g>
<g id="Layer_1">
	<g>
		<g>
			<path fill="#FFFFFF" d="M25.258,17.324L20.35,17.58c-0.068-2.361-1.169-3.542-3.303-3.542c-2.446,0-3.669,1.818-3.669,5.454
				c0,2.1,0.333,3.522,0.998,4.271c0.666,0.746,1.596,1.121,2.789,1.121c1.938,0,3.121-1.055,3.553-3.162l4.541,0.233
				c-0.293,2.002-1.185,3.523-2.674,4.564c-1.489,1.043-3.313,1.563-5.471,1.563c-2.646,0-4.798-0.765-6.453-2.292
				c-1.655-1.528-2.483-3.64-2.483-6.336c0-2.525,0.801-4.592,2.402-6.202c1.602-1.609,3.79-2.414,6.563-2.414
				C21.947,10.84,24.651,13.001,25.258,17.324z"/>
		</g>
		<g>
			<path fill="#FFFFFF" d="M7.424,12.382c-1.384,0-2.557-0.486-3.52-1.457C2.941,9.954,2.46,8.77,2.46,7.374
				c0-1.392,0.481-2.572,1.444-3.539c0.963-0.967,2.136-1.45,3.52-1.45c1.388,0,2.563,0.483,3.526,1.45
				c0.963,0.967,1.444,2.147,1.444,3.539c0,1.396-0.481,2.58-1.444,3.552C9.987,11.896,8.812,12.382,7.424,12.382z M7.424,6.098
				c-0.275,0-0.504,0.096-0.686,0.289C6.557,6.579,6.465,6.821,6.465,7.113S6.557,7.647,6.738,7.84
				c0.182,0.192,0.41,0.289,0.686,0.289c0.279,0,0.51-0.096,0.691-0.289c0.183-0.193,0.273-0.435,0.273-0.727
				S8.298,6.579,8.115,6.386C7.934,6.194,7.703,6.098,7.424,6.098z"/>
		</g>
	</g>
</g>
</svg>
